<svg xmlns="http://www.w3.org/2000/svg" xmlns:xlink="http://www.w3.org/1999/xlink" width="513" zoomAndPan="magnify" viewBox="0 0 384.75 187.499995" height="250" preserveAspectRatio="xMidYMid meet" version="1.0"><defs><g/><clipPath id="2b852f051c"><path d="M 0.386719 0 L 374.390625 0 L 374.390625 187 L 0.386719 187 Z M 0.386719 0 " clip-rule="nonzero"/></clipPath><clipPath id="3c7a3c00e5"><path d="M 280.890625 0 C 332.527344 0 374.390625 41.863281 374.390625 93.5 C 374.390625 145.140625 332.527344 187 280.890625 187 L 93.886719 187 C 42.25 187 0.386719 145.140625 0.386719 93.5 C 0.386719 41.863281 42.25 0 93.886719 0 Z M 280.890625 0 " clip-rule="nonzero"/></clipPath><linearGradient x1="0" gradientTransform="matrix(0.730474, 0, 0, 0.730474, 0.386974, 0)" y1="128" x2="511.999973" gradientUnits="userSpaceOnUse" y2="128" id="2365bd65fc"><stop stop-opacity="1" stop-color="rgb(100%, 19.198608%, 19.198608%)" offset="0"/><stop stop-opacity="1" stop-color="rgb(100%, 19.345093%, 19.241333%)" offset="0.0078125"/><stop stop-opacity="1" stop-color="rgb(100%, 19.639587%, 19.328308%)" offset="0.015625"/><stop stop-opacity="1" stop-color="rgb(100%, 19.934082%, 19.413757%)" offset="0.0234375"/><stop stop-opacity="1" stop-color="rgb(100%, 20.230103%, 19.499207%)" offset="0.03125"/><stop stop-opacity="1" stop-color="rgb(100%, 20.524597%, 19.586182%)" offset="0.0390625"/><stop stop-opacity="1" stop-color="rgb(100%, 20.819092%, 19.671631%)" offset="0.046875"/><stop stop-opacity="1" stop-color="rgb(100%, 21.113586%, 19.75708%)" offset="0.0546875"/><stop stop-opacity="1" stop-color="rgb(100%, 21.408081%, 19.844055%)" offset="0.0625"/><stop stop-opacity="1" stop-color="rgb(100%, 21.702576%, 19.929504%)" offset="0.0703125"/><stop stop-opacity="1" stop-color="rgb(100%, 21.99707%, 20.014954%)" offset="0.078125"/><stop stop-opacity="1" stop-color="rgb(100%, 22.291565%, 20.101929%)" offset="0.0859375"/><stop stop-opacity="1" stop-color="rgb(100%, 22.58606%, 20.187378%)" offset="0.09375"/><stop stop-opacity="1" stop-color="rgb(100%, 22.880554%, 20.272827%)" offset="0.101562"/><stop stop-opacity="1" stop-color="rgb(100%, 23.175049%, 20.359802%)" offset="0.109375"/><stop stop-opacity="1" stop-color="rgb(100%, 23.469543%, 20.445251%)" offset="0.117188"/><stop stop-opacity="1" stop-color="rgb(100%, 23.764038%, 20.530701%)" offset="0.125"/><stop stop-opacity="1" stop-color="rgb(100%, 24.058533%, 20.617676%)" offset="0.132812"/><stop stop-opacity="1" stop-color="rgb(100%, 24.353027%, 20.703125%)" offset="0.140625"/><stop stop-opacity="1" stop-color="rgb(100%, 24.647522%, 20.788574%)" offset="0.148438"/><stop stop-opacity="1" stop-color="rgb(100%, 24.942017%, 20.874023%)" offset="0.15625"/><stop stop-opacity="1" stop-color="rgb(100%, 25.236511%, 20.960999%)" offset="0.164063"/><stop stop-opacity="1" stop-color="rgb(100%, 25.531006%, 21.046448%)" offset="0.171875"/><stop stop-opacity="1" stop-color="rgb(100%, 25.8255%, 21.131897%)" offset="0.179688"/><stop stop-opacity="1" stop-color="rgb(100%, 26.119995%, 21.218872%)" offset="0.1875"/><stop stop-opacity="1" stop-color="rgb(100%, 26.41449%, 21.304321%)" offset="0.195312"/><stop stop-opacity="1" stop-color="rgb(100%, 26.708984%, 21.389771%)" offset="0.203125"/><stop stop-opacity="1" stop-color="rgb(100%, 27.003479%, 21.476746%)" offset="0.210938"/><stop stop-opacity="1" stop-color="rgb(100%, 27.297974%, 21.562195%)" offset="0.21875"/><stop stop-opacity="1" stop-color="rgb(100%, 27.592468%, 21.647644%)" offset="0.226562"/><stop stop-opacity="1" stop-color="rgb(100%, 27.886963%, 21.734619%)" offset="0.234375"/><stop stop-opacity="1" stop-color="rgb(100%, 28.181458%, 21.820068%)" offset="0.242188"/><stop stop-opacity="1" stop-color="rgb(100%, 28.475952%, 21.905518%)" offset="0.25"/><stop stop-opacity="1" stop-color="rgb(100%, 28.770447%, 21.992493%)" offset="0.257812"/><stop stop-opacity="1" stop-color="rgb(100%, 29.064941%, 22.077942%)" offset="0.265625"/><stop stop-opacity="1" stop-color="rgb(100%, 29.359436%, 22.163391%)" offset="0.273437"/><stop stop-opacity="1" stop-color="rgb(100%, 29.653931%, 22.250366%)" offset="0.28125"/><stop stop-opacity="1" stop-color="rgb(100%, 29.948425%, 22.335815%)" offset="0.289063"/><stop stop-opacity="1" stop-color="rgb(100%, 30.24292%, 22.421265%)" offset="0.296875"/><stop stop-opacity="1" stop-color="rgb(100%, 30.537415%, 22.50824%)" offset="0.304688"/><stop stop-opacity="1" stop-color="rgb(100%, 30.831909%, 22.593689%)" offset="0.3125"/><stop stop-opacity="1" stop-color="rgb(100%, 31.126404%, 22.679138%)" offset="0.320313"/><stop stop-opacity="1" stop-color="rgb(100%, 31.420898%, 22.766113%)" offset="0.328125"/><stop stop-opacity="1" stop-color="rgb(100%, 31.715393%, 22.851562%)" offset="0.335938"/><stop stop-opacity="1" stop-color="rgb(100%, 32.009888%, 22.937012%)" offset="0.34375"/><stop stop-opacity="1" stop-color="rgb(100%, 32.304382%, 23.022461%)" offset="0.351562"/><stop stop-opacity="1" stop-color="rgb(100%, 32.600403%, 23.109436%)" offset="0.359375"/><stop stop-opacity="1" stop-color="rgb(100%, 32.894897%, 23.194885%)" offset="0.367188"/><stop stop-opacity="1" stop-color="rgb(100%, 33.189392%, 23.280334%)" offset="0.375"/><stop stop-opacity="1" stop-color="rgb(100%, 33.483887%, 23.36731%)" offset="0.382812"/><stop stop-opacity="1" stop-color="rgb(100%, 33.778381%, 23.452759%)" offset="0.390625"/><stop stop-opacity="1" stop-color="rgb(100%, 34.072876%, 23.538208%)" offset="0.398438"/><stop stop-opacity="1" stop-color="rgb(100%, 34.367371%, 23.625183%)" offset="0.40625"/><stop stop-opacity="1" stop-color="rgb(100%, 34.661865%, 23.710632%)" offset="0.414062"/><stop stop-opacity="1" stop-color="rgb(100%, 34.95636%, 23.796082%)" offset="0.421875"/><stop stop-opacity="1" stop-color="rgb(100%, 35.250854%, 23.883057%)" offset="0.429688"/><stop stop-opacity="1" stop-color="rgb(100%, 35.545349%, 23.968506%)" offset="0.4375"/><stop stop-opacity="1" stop-color="rgb(100%, 35.839844%, 24.053955%)" offset="0.445313"/><stop stop-opacity="1" stop-color="rgb(100%, 36.134338%, 24.14093%)" offset="0.453125"/><stop stop-opacity="1" stop-color="rgb(100%, 36.428833%, 24.226379%)" offset="0.460938"/><stop stop-opacity="1" stop-color="rgb(100%, 36.723328%, 24.311829%)" offset="0.46875"/><stop stop-opacity="1" stop-color="rgb(100%, 37.017822%, 24.398804%)" offset="0.476562"/><stop stop-opacity="1" stop-color="rgb(100%, 37.312317%, 24.484253%)" offset="0.484375"/><stop stop-opacity="1" stop-color="rgb(100%, 37.606812%, 24.569702%)" offset="0.492188"/><stop stop-opacity="1" stop-color="rgb(100%, 37.901306%, 24.656677%)" offset="0.5"/><stop stop-opacity="1" stop-color="rgb(100%, 38.195801%, 24.742126%)" offset="0.507812"/><stop stop-opacity="1" stop-color="rgb(100%, 38.490295%, 24.827576%)" offset="0.515625"/><stop stop-opacity="1" stop-color="rgb(100%, 38.78479%, 24.914551%)" offset="0.523437"/><stop stop-opacity="1" stop-color="rgb(100%, 39.079285%, 25%)" offset="0.53125"/><stop stop-opacity="1" stop-color="rgb(100%, 39.373779%, 25.085449%)" offset="0.539062"/><stop stop-opacity="1" stop-color="rgb(100%, 39.668274%, 25.170898%)" offset="0.546875"/><stop stop-opacity="1" stop-color="rgb(100%, 39.962769%, 25.257874%)" offset="0.554688"/><stop stop-opacity="1" stop-color="rgb(100%, 40.257263%, 25.343323%)" offset="0.5625"/><stop stop-opacity="1" stop-color="rgb(100%, 40.551758%, 25.428772%)" offset="0.570312"/><stop stop-opacity="1" stop-color="rgb(100%, 40.846252%, 25.515747%)" offset="0.578125"/><stop stop-opacity="1" stop-color="rgb(100%, 41.140747%, 25.601196%)" offset="0.585938"/><stop stop-opacity="1" stop-color="rgb(100%, 41.435242%, 25.686646%)" offset="0.59375"/><stop stop-opacity="1" stop-color="rgb(100%, 41.729736%, 25.773621%)" offset="0.601562"/><stop stop-opacity="1" stop-color="rgb(100%, 42.024231%, 25.85907%)" offset="0.609375"/><stop stop-opacity="1" stop-color="rgb(100%, 42.318726%, 25.944519%)" offset="0.617188"/><stop stop-opacity="1" stop-color="rgb(100%, 42.61322%, 26.031494%)" offset="0.625"/><stop stop-opacity="1" stop-color="rgb(100%, 42.907715%, 26.116943%)" offset="0.632813"/><stop stop-opacity="1" stop-color="rgb(100%, 43.202209%, 26.202393%)" offset="0.640625"/><stop stop-opacity="1" stop-color="rgb(100%, 43.496704%, 26.289368%)" offset="0.648438"/><stop stop-opacity="1" stop-color="rgb(100%, 43.791199%, 26.374817%)" offset="0.65625"/><stop stop-opacity="1" stop-color="rgb(100%, 44.085693%, 26.460266%)" offset="0.664063"/><stop stop-opacity="1" stop-color="rgb(100%, 44.380188%, 26.547241%)" offset="0.671875"/><stop stop-opacity="1" stop-color="rgb(100%, 44.674683%, 26.63269%)" offset="0.679688"/><stop stop-opacity="1" stop-color="rgb(100%, 44.970703%, 26.71814%)" offset="0.6875"/><stop stop-opacity="1" stop-color="rgb(100%, 45.265198%, 26.805115%)" offset="0.695312"/><stop stop-opacity="1" stop-color="rgb(100%, 45.559692%, 26.890564%)" offset="0.703125"/><stop stop-opacity="1" stop-color="rgb(100%, 45.854187%, 26.976013%)" offset="0.710938"/><stop stop-opacity="1" stop-color="rgb(100%, 46.148682%, 27.062988%)" offset="0.71875"/><stop stop-opacity="1" stop-color="rgb(100%, 46.443176%, 27.148438%)" offset="0.726562"/><stop stop-opacity="1" stop-color="rgb(100%, 46.737671%, 27.233887%)" offset="0.734375"/><stop stop-opacity="1" stop-color="rgb(100%, 47.032166%, 27.319336%)" offset="0.742188"/><stop stop-opacity="1" stop-color="rgb(100%, 47.32666%, 27.406311%)" offset="0.75"/><stop stop-opacity="1" stop-color="rgb(100%, 47.621155%, 27.49176%)" offset="0.757813"/><stop stop-opacity="1" stop-color="rgb(100%, 47.915649%, 27.577209%)" offset="0.765625"/><stop stop-opacity="1" stop-color="rgb(100%, 48.210144%, 27.664185%)" offset="0.773438"/><stop stop-opacity="1" stop-color="rgb(100%, 48.504639%, 27.749634%)" offset="0.78125"/><stop stop-opacity="1" stop-color="rgb(100%, 48.799133%, 27.835083%)" offset="0.789062"/><stop stop-opacity="1" stop-color="rgb(100%, 49.093628%, 27.922058%)" offset="0.796875"/><stop stop-opacity="1" stop-color="rgb(100%, 49.388123%, 28.007507%)" offset="0.804688"/><stop stop-opacity="1" stop-color="rgb(100%, 49.682617%, 28.092957%)" offset="0.8125"/><stop stop-opacity="1" stop-color="rgb(100%, 49.977112%, 28.179932%)" offset="0.820312"/><stop stop-opacity="1" stop-color="rgb(100%, 50.271606%, 28.265381%)" offset="0.828125"/><stop stop-opacity="1" stop-color="rgb(100%, 50.566101%, 28.35083%)" offset="0.835938"/><stop stop-opacity="1" stop-color="rgb(100%, 50.860596%, 28.437805%)" offset="0.84375"/><stop stop-opacity="1" stop-color="rgb(100%, 51.15509%, 28.523254%)" offset="0.851562"/><stop stop-opacity="1" stop-color="rgb(100%, 51.449585%, 28.608704%)" offset="0.859375"/><stop stop-opacity="1" stop-color="rgb(100%, 51.74408%, 28.695679%)" offset="0.867188"/><stop stop-opacity="1" stop-color="rgb(100%, 52.038574%, 28.781128%)" offset="0.875"/><stop stop-opacity="1" stop-color="rgb(100%, 52.333069%, 28.866577%)" offset="0.882812"/><stop stop-opacity="1" stop-color="rgb(100%, 52.627563%, 28.953552%)" offset="0.890625"/><stop stop-opacity="1" stop-color="rgb(100%, 52.922058%, 29.039001%)" offset="0.898438"/><stop stop-opacity="1" stop-color="rgb(100%, 53.216553%, 29.124451%)" offset="0.90625"/><stop stop-opacity="1" stop-color="rgb(100%, 53.511047%, 29.211426%)" offset="0.914063"/><stop stop-opacity="1" stop-color="rgb(100%, 53.805542%, 29.296875%)" offset="0.921875"/><stop stop-opacity="1" stop-color="rgb(100%, 54.100037%, 29.382324%)" offset="0.929688"/><stop stop-opacity="1" stop-color="rgb(100%, 54.394531%, 29.467773%)" offset="0.9375"/><stop stop-opacity="1" stop-color="rgb(100%, 54.689026%, 29.554749%)" offset="0.945312"/><stop stop-opacity="1" stop-color="rgb(100%, 54.983521%, 29.640198%)" offset="0.953125"/><stop stop-opacity="1" stop-color="rgb(100%, 55.278015%, 29.725647%)" offset="0.960938"/><stop stop-opacity="1" stop-color="rgb(100%, 55.57251%, 29.812622%)" offset="0.96875"/><stop stop-opacity="1" stop-color="rgb(100%, 55.867004%, 29.898071%)" offset="0.976562"/><stop stop-opacity="1" stop-color="rgb(100%, 56.161499%, 29.983521%)" offset="0.984375"/><stop stop-opacity="1" stop-color="rgb(100%, 56.455994%, 30.070496%)" offset="0.992188"/><stop stop-opacity="1" stop-color="rgb(100%, 56.750488%, 30.155945%)" offset="1"/></linearGradient><clipPath id="ff0b3d43bd"><path d="M 26.941406 63.824219 L 145.875 63.824219 L 145.875 122.917969 L 26.941406 122.917969 Z M 26.941406 63.824219 " clip-rule="nonzero"/></clipPath><clipPath id="b12b8a67a8"><path d="M 26.941406 93.5 C 26.941406 101.371094 30.066406 108.917969 35.632812 114.484375 C 41.199219 120.050781 48.746094 123.175781 56.617188 123.175781 L 115.964844 123.175781 C 123.835938 123.175781 131.382812 120.050781 136.949219 114.484375 C 142.511719 108.917969 145.640625 101.371094 145.640625 93.5 C 145.640625 85.628906 142.511719 78.082031 136.949219 72.515625 C 131.382812 66.953125 123.835938 63.824219 115.964844 63.824219 L 56.617188 63.824219 C 48.746094 63.824219 41.199219 66.953125 35.632812 72.515625 C 30.066406 78.082031 26.941406 85.628906 26.941406 93.5 Z M 26.941406 93.5 " clip-rule="nonzero"/></clipPath><clipPath id="22be10aba3"><path d="M 91 69 L 139 69 L 139 118 L 91 118 Z M 91 69 " clip-rule="nonzero"/></clipPath><clipPath id="5793b11ff7"><path d="M 26.941406 93.5 C 26.941406 101.371094 30.066406 108.917969 35.632812 114.484375 C 41.199219 120.050781 48.746094 123.175781 56.617188 123.175781 L 115.964844 123.175781 C 123.835938 123.175781 131.382812 120.050781 136.949219 114.484375 C 142.511719 108.917969 145.640625 101.371094 145.640625 93.5 C 145.640625 85.628906 142.511719 78.082031 136.949219 72.515625 C 131.382812 66.953125 123.835938 63.824219 115.964844 63.824219 L 56.617188 63.824219 C 48.746094 63.824219 41.199219 66.953125 35.632812 72.515625 C 30.066406 78.082031 26.941406 85.628906 26.941406 93.5 Z M 26.941406 93.5 " clip-rule="nonzero"/></clipPath></defs><g clip-path="url(#2b852f051c)"><g clip-path="url(#3c7a3c00e5)"><path fill="url(#2365bd65fc)" d="M 0.386719 0 L 0.386719 187 L 374.390625 187 L 374.390625 0 Z M 0.386719 0 " fill-rule="nonzero"/></g></g><g clip-path="url(#ff0b3d43bd)"><g clip-path="url(#b12b8a67a8)"><path fill="#000000" d="M 117.730469 63.824219 L 54.847656 63.824219 C 39.515625 63.824219 26.941406 76.402344 26.941406 91.734375 L 26.941406 95.195312 C 26.941406 110.597656 39.515625 123.175781 54.847656 123.175781 L 117.660156 123.175781 C 132.992188 123.175781 145.570312 110.597656 145.570312 95.265625 L 145.570312 91.804688 C 145.640625 76.402344 133.0625 63.824219 117.730469 63.824219 Z M 117.730469 63.824219 " fill-opacity="1" fill-rule="nonzero"/></g></g><g clip-path="url(#22be10aba3)"><g clip-path="url(#5793b11ff7)"><path fill="#f05831" d="M 138.714844 93.5 C 138.714844 94.273438 138.679688 95.042969 138.601562 95.8125 C 138.527344 96.582031 138.414062 97.347656 138.261719 98.105469 C 138.113281 98.863281 137.925781 99.613281 137.699219 100.351562 C 137.476562 101.089844 137.214844 101.816406 136.917969 102.53125 C 136.625 103.246094 136.292969 103.941406 135.929688 104.625 C 135.566406 105.304688 135.167969 105.96875 134.738281 106.609375 C 134.308594 107.253906 133.847656 107.875 133.359375 108.472656 C 132.867188 109.070312 132.351562 109.640625 131.804688 110.1875 C 131.257812 110.734375 130.683594 111.253906 130.089844 111.742188 C 129.492188 112.234375 128.871094 112.691406 128.226562 113.121094 C 127.585938 113.550781 126.921875 113.949219 126.242188 114.3125 C 125.558594 114.675781 124.863281 115.007812 124.148438 115.304688 C 123.433594 115.597656 122.707031 115.859375 121.96875 116.082031 C 121.226562 116.308594 120.480469 116.496094 119.722656 116.644531 C 118.964844 116.796875 118.199219 116.910156 117.429688 116.984375 C 116.660156 117.0625 115.890625 117.097656 115.117188 117.097656 C 114.34375 117.097656 113.574219 117.0625 112.804688 116.984375 C 112.035156 116.910156 111.269531 116.796875 110.511719 116.644531 C 109.753906 116.496094 109.007812 116.308594 108.265625 116.082031 C 107.527344 115.859375 106.800781 115.597656 106.085938 115.304688 C 105.371094 115.007812 104.675781 114.675781 103.992188 114.3125 C 103.3125 113.949219 102.648438 113.550781 102.007812 113.121094 C 101.363281 112.691406 100.742188 112.234375 100.148438 111.742188 C 99.550781 111.253906 98.976562 110.734375 98.429688 110.1875 C 97.882812 109.640625 97.367188 109.070312 96.875 108.472656 C 96.386719 107.875 95.925781 107.253906 95.496094 106.609375 C 95.066406 105.96875 94.667969 105.304688 94.304688 104.625 C 93.941406 103.941406 93.609375 103.246094 93.316406 102.53125 C 93.019531 101.816406 92.757812 101.089844 92.535156 100.351562 C 92.308594 99.613281 92.121094 98.863281 91.972656 98.105469 C 91.820312 97.347656 91.707031 96.582031 91.632812 95.8125 C 91.554688 95.042969 91.519531 94.273438 91.519531 93.5 C 91.519531 92.726562 91.554688 91.957031 91.632812 91.1875 C 91.707031 90.417969 91.820312 89.65625 91.972656 88.898438 C 92.121094 88.140625 92.308594 87.390625 92.535156 86.648438 C 92.757812 85.910156 93.019531 85.183594 93.316406 84.46875 C 93.609375 83.753906 93.941406 83.058594 94.304688 82.375 C 94.667969 81.695312 95.066406 81.03125 95.496094 80.390625 C 95.925781 79.746094 96.386719 79.128906 96.875 78.53125 C 97.367188 77.933594 97.882812 77.359375 98.429688 76.8125 C 98.976562 76.265625 99.550781 75.75 100.148438 75.257812 C 100.742188 74.769531 101.363281 74.308594 102.007812 73.878906 C 102.648438 73.449219 103.3125 73.054688 103.992188 72.6875 C 104.675781 72.324219 105.371094 71.996094 106.085938 71.699219 C 106.800781 71.402344 107.527344 71.144531 108.265625 70.917969 C 109.007812 70.695312 109.753906 70.507812 110.511719 70.355469 C 111.269531 70.203125 112.035156 70.089844 112.804688 70.015625 C 113.574219 69.941406 114.34375 69.902344 115.117188 69.902344 C 115.890625 69.902344 116.660156 69.941406 117.429688 70.015625 C 118.199219 70.089844 118.964844 70.203125 119.722656 70.355469 C 120.480469 70.507812 121.226562 70.695312 121.96875 70.917969 C 122.707031 71.144531 123.433594 71.402344 124.148438 71.699219 C 124.863281 71.996094 125.558594 72.324219 126.242188 72.6875 C 126.921875 73.054688 127.585938 73.449219 128.226562 73.878906 C 128.871094 74.308594 129.492188 74.769531 130.089844 75.257812 C 130.683594 75.75 131.257812 76.265625 131.804688 76.8125 C 132.351562 77.359375 132.867188 77.933594 133.359375 78.53125 C 133.847656 79.128906 134.308594 79.746094 134.738281 80.390625 C 135.167969 81.03125 135.566406 81.695312 135.929688 82.375 C 136.292969 83.058594 136.625 83.753906 136.917969 84.46875 C 137.214844 85.183594 137.476562 85.910156 137.699219 86.648438 C 137.925781 87.390625 138.113281 88.140625 138.261719 88.898438 C 138.414062 89.65625 138.527344 90.417969 138.601562 91.1875 C 138.679688 91.957031 138.714844 92.726562 138.714844 93.5 Z M 138.714844 93.5 " fill-opacity="1" fill-rule="nonzero"/></g></g><g fill="#f1f2f2" fill-opacity="1"><g transform="translate(204.420048, 112.323997)"><g><path d="M 19.796875 -24.09375 L 14.46875 -24.09375 L 14.46875 0 L 4.578125 0 L 4.578125 -24.09375 L 0.984375 -24.09375 L 0.984375 -32.3125 L 4.578125 -32.3125 L 4.578125 -33.234375 C 4.578125 -37.210938 5.710938 -40.234375 7.984375 -42.296875 C 10.265625 -44.359375 13.609375 -45.390625 18.015625 -45.390625 C 18.742188 -45.390625 19.28125 -45.375 19.625 -45.34375 L 19.625 -36.9375 C 17.738281 -37.0625 16.40625 -36.796875 15.625 -36.140625 C 14.851562 -35.484375 14.46875 -34.300781 14.46875 -32.59375 L 14.46875 -32.3125 L 19.796875 -32.3125 Z M 19.796875 -24.09375 "/></g></g></g><g fill="#f1f2f2" fill-opacity="1"><g transform="translate(225.25755, 112.323997)"><g><path d="M 13.484375 -42.84375 L 13.484375 0 L 3.59375 0 L 3.59375 -42.84375 Z M 13.484375 -42.84375 "/></g></g></g><g fill="#f1f2f2" fill-opacity="1"><g transform="translate(242.332728, 112.323997)"><g><path d="M 34.046875 -16.671875 C 34.046875 -15.742188 33.988281 -14.78125 33.875 -13.78125 L 11.46875 -13.78125 C 11.625 -11.769531 12.269531 -10.234375 13.40625 -9.171875 C 14.539062 -8.109375 15.941406 -7.578125 17.609375 -7.578125 C 20.078125 -7.578125 21.789062 -8.625 22.75 -10.71875 L 33.296875 -10.71875 C 32.753906 -8.59375 31.78125 -6.679688 30.375 -4.984375 C 28.96875 -3.285156 27.203125 -1.953125 25.078125 -0.984375 C 22.953125 -0.015625 20.578125 0.46875 17.953125 0.46875 C 14.785156 0.46875 11.96875 -0.207031 9.5 -1.5625 C 7.03125 -2.914062 5.097656 -4.847656 3.703125 -7.359375 C 2.316406 -9.867188 1.625 -12.800781 1.625 -16.15625 C 1.625 -19.507812 2.304688 -22.441406 3.671875 -24.953125 C 5.046875 -27.460938 6.96875 -29.394531 9.4375 -30.75 C 11.90625 -32.101562 14.742188 -32.78125 17.953125 -32.78125 C 21.078125 -32.78125 23.851562 -32.125 26.28125 -30.8125 C 28.71875 -29.5 30.617188 -27.625 31.984375 -25.1875 C 33.359375 -22.757812 34.046875 -19.921875 34.046875 -16.671875 Z M 23.921875 -19.28125 C 23.921875 -20.976562 23.335938 -22.328125 22.171875 -23.328125 C 21.015625 -24.335938 19.566406 -24.84375 17.828125 -24.84375 C 16.171875 -24.84375 14.769531 -24.359375 13.625 -23.390625 C 12.488281 -22.429688 11.785156 -21.0625 11.515625 -19.28125 Z M 23.921875 -19.28125 "/></g></g></g><g fill="#f1f2f2" fill-opacity="1"><g transform="translate(277.988008, 112.323997)"><g><path d="M 22.703125 0 L 16.5 -8.96875 L 11.296875 0 L 0.578125 0 L 11.234375 -16.5 L 0.296875 -32.3125 L 11.40625 -32.3125 L 17.609375 -23.390625 L 22.8125 -32.3125 L 33.53125 -32.3125 L 22.703125 -16.046875 L 33.8125 0 Z M 22.703125 0 "/></g></g></g><g fill="#f1f2f2" fill-opacity="1"><g transform="translate(312.022601, 112.323997)"><g><path d="M 36.59375 -32.3125 L 16.328125 15.34375 L 5.671875 15.34375 L 13.09375 -1.09375 L -0.0625 -32.3125 L 11 -32.3125 L 18.46875 -12.109375 L 25.890625 -32.3125 Z M 36.59375 -32.3125 "/></g></g></g><g fill="#f1f2f2" fill-opacity="1"><g transform="translate(152.110155, 112.943408)"><g><path d="M 7.4375 0.75 C 6.09375 0.75 4.910156 0.234375 3.890625 -0.796875 C 2.867188 -1.835938 2.359375 -3.648438 2.359375 -6.234375 C 2.359375 -7.972656 2.691406 -9.726562 3.359375 -11.5 C 4.035156 -13.28125 4.929688 -14.960938 6.046875 -16.546875 C 7.171875 -18.140625 8.441406 -19.570312 9.859375 -20.84375 C 11.285156 -22.113281 12.769531 -23.109375 14.3125 -23.828125 C 15.851562 -24.554688 17.363281 -24.921875 18.84375 -24.921875 C 19.507812 -24.921875 20.144531 -24.816406 20.75 -24.609375 L 21.5 -28.375 C 21.800781 -29.882812 21.25 -30.910156 19.84375 -31.453125 L 18.734375 -31.90625 L 18.84375 -32.40625 L 28.578125 -35.21875 L 28.9375 -34.859375 L 22.75 -5.625 C 22.65625 -5.09375 22.582031 -4.648438 22.53125 -4.296875 C 22.476562 -3.941406 22.453125 -3.597656 22.453125 -3.265625 C 22.453125 -2.554688 22.738281 -2.203125 23.3125 -2.203125 C 23.707031 -2.203125 24.25 -2.410156 24.9375 -2.828125 C 25.625 -3.253906 26.320312 -3.882812 27.03125 -4.71875 L 27.578125 -4.21875 C 26.773438 -2.875 25.6875 -1.707031 24.3125 -0.71875 C 22.9375 0.257812 21.476562 0.75 19.9375 0.75 C 18.832031 0.75 17.960938 0.390625 17.328125 -0.328125 C 16.691406 -1.046875 16.375 -1.972656 16.375 -3.109375 C 16.375 -3.679688 16.425781 -4.351562 16.53125 -5.125 C 15.15625 -3.382812 13.65625 -1.96875 12.03125 -0.875 C 10.40625 0.207031 8.875 0.75 7.4375 0.75 Z M 8.484375 -7.84375 C 8.484375 -6.164062 8.75 -4.957031 9.28125 -4.21875 C 9.820312 -3.476562 10.53125 -3.109375 11.40625 -3.109375 C 12.945312 -3.109375 14.722656 -4.28125 16.734375 -6.625 C 16.765625 -6.789062 16.796875 -6.976562 16.828125 -7.1875 L 19.890625 -22 C 19.054688 -22.769531 18.066406 -23.15625 16.921875 -23.15625 C 16.085938 -23.15625 15.3125 -22.960938 14.59375 -22.578125 C 13.875 -22.191406 13.195312 -21.648438 12.5625 -20.953125 C 11.789062 -20.078125 11.09375 -18.910156 10.46875 -17.453125 C 9.851562 -15.992188 9.367188 -14.421875 9.015625 -12.734375 C 8.660156 -11.046875 8.484375 -9.414062 8.484375 -7.84375 Z M 8.484375 -7.84375 "/></g></g></g><g fill="#f1f2f2" fill-opacity="1"><g transform="translate(179.876921, 112.943408)"><g><path d="M 11.046875 0.75 C 8.535156 0.75 6.492188 -0.0664062 4.921875 -1.703125 C 3.347656 -3.347656 2.5625 -5.675781 2.5625 -8.6875 C 2.5625 -10.832031 2.925781 -12.875 3.65625 -14.8125 C 4.394531 -16.757812 5.425781 -18.492188 6.75 -20.015625 C 8.070312 -21.535156 9.601562 -22.734375 11.34375 -23.609375 C 13.09375 -24.484375 14.988281 -24.921875 17.03125 -24.921875 C 19.132812 -24.921875 20.75 -24.441406 21.875 -23.484375 C 23 -22.523438 23.5625 -21.257812 23.5625 -19.6875 C 23.5625 -18.382812 22.945312 -17.097656 21.71875 -15.828125 C 20.5 -14.554688 18.785156 -13.40625 16.578125 -12.375 C 14.367188 -11.351562 11.773438 -10.578125 8.796875 -10.046875 C 8.828125 -7.734375 9.328125 -6.039062 10.296875 -4.96875 C 11.265625 -3.894531 12.601562 -3.359375 14.3125 -3.359375 C 15.757812 -3.359375 17.082031 -3.753906 18.28125 -4.546875 C 19.488281 -5.335938 20.507812 -6.265625 21.34375 -7.328125 L 21.859375 -6.984375 C 21.179688 -5.671875 20.316406 -4.425781 19.265625 -3.25 C 18.210938 -2.082031 17 -1.125 15.625 -0.375 C 14.25 0.375 12.722656 0.75 11.046875 0.75 Z M 16.671875 -23.5625 C 15.898438 -23.5625 15.070312 -23.222656 14.1875 -22.546875 C 13.300781 -21.878906 12.460938 -20.96875 11.671875 -19.8125 C 10.890625 -18.65625 10.238281 -17.332031 9.71875 -15.84375 C 9.195312 -14.351562 8.890625 -12.773438 8.796875 -11.109375 C 12.472656 -12.109375 15.085938 -13.425781 16.640625 -15.0625 C 18.203125 -16.707031 18.984375 -18.566406 18.984375 -20.640625 C 18.984375 -21.648438 18.765625 -22.390625 18.328125 -22.859375 C 17.898438 -23.328125 17.347656 -23.5625 16.671875 -23.5625 Z M 16.671875 -23.5625 "/></g></g></g></svg>