<svg xmlns="http://www.w3.org/2000/svg" xmlns:xlink="http://www.w3.org/1999/xlink" width="500" zoomAndPan="magnify" viewBox="0 0 375 374.999991" height="500" preserveAspectRatio="xMidYMid meet" version="1.0"><defs><clipPath id="5c8463775e"><path d="M 187.5 0 C 83.945312 0 0 83.945312 0 187.5 C 0 291.054688 83.945312 375 187.5 375 C 291.054688 375 375 291.054688 375 187.5 C 375 83.945312 291.054688 0 187.5 0 Z M 187.5 0 " clip-rule="nonzero"/></clipPath><linearGradient x1="-0" gradientTransform="matrix(1.464844, 0, 0, 1.464844, 0.0000045, 0)" y1="128" x2="255.999988" gradientUnits="userSpaceOnUse" y2="128" id="3d5e13f62f"><stop stop-opacity="1" stop-color="rgb(100%, 19.198608%, 19.198608%)" offset="0"/><stop stop-opacity="1" stop-color="rgb(100%, 19.345093%, 19.241333%)" offset="0.0078125"/><stop stop-opacity="1" stop-color="rgb(100%, 19.639587%, 19.328308%)" offset="0.015625"/><stop stop-opacity="1" stop-color="rgb(100%, 19.934082%, 19.413757%)" offset="0.0234375"/><stop stop-opacity="1" stop-color="rgb(100%, 20.230103%, 19.499207%)" offset="0.03125"/><stop stop-opacity="1" stop-color="rgb(100%, 20.524597%, 19.586182%)" offset="0.0390625"/><stop stop-opacity="1" stop-color="rgb(100%, 20.819092%, 19.671631%)" offset="0.046875"/><stop stop-opacity="1" stop-color="rgb(100%, 21.113586%, 19.75708%)" offset="0.0546875"/><stop stop-opacity="1" stop-color="rgb(100%, 21.408081%, 19.844055%)" offset="0.0625"/><stop stop-opacity="1" stop-color="rgb(100%, 21.702576%, 19.929504%)" offset="0.0703125"/><stop stop-opacity="1" stop-color="rgb(100%, 21.99707%, 20.014954%)" offset="0.078125"/><stop stop-opacity="1" stop-color="rgb(100%, 22.291565%, 20.101929%)" offset="0.0859375"/><stop stop-opacity="1" stop-color="rgb(100%, 22.58606%, 20.187378%)" offset="0.09375"/><stop stop-opacity="1" stop-color="rgb(100%, 22.880554%, 20.272827%)" offset="0.101562"/><stop stop-opacity="1" stop-color="rgb(100%, 23.175049%, 20.359802%)" offset="0.109375"/><stop stop-opacity="1" stop-color="rgb(100%, 23.469543%, 20.445251%)" offset="0.117188"/><stop stop-opacity="1" stop-color="rgb(100%, 23.764038%, 20.530701%)" offset="0.125"/><stop stop-opacity="1" stop-color="rgb(100%, 24.058533%, 20.617676%)" offset="0.132812"/><stop stop-opacity="1" stop-color="rgb(100%, 24.353027%, 20.703125%)" offset="0.140625"/><stop stop-opacity="1" stop-color="rgb(100%, 24.647522%, 20.788574%)" offset="0.148438"/><stop stop-opacity="1" stop-color="rgb(100%, 24.942017%, 20.874023%)" offset="0.15625"/><stop stop-opacity="1" stop-color="rgb(100%, 25.236511%, 20.960999%)" offset="0.164062"/><stop stop-opacity="1" stop-color="rgb(100%, 25.531006%, 21.046448%)" offset="0.171875"/><stop stop-opacity="1" stop-color="rgb(100%, 25.8255%, 21.131897%)" offset="0.179688"/><stop stop-opacity="1" stop-color="rgb(100%, 26.119995%, 21.218872%)" offset="0.1875"/><stop stop-opacity="1" stop-color="rgb(100%, 26.41449%, 21.304321%)" offset="0.195312"/><stop stop-opacity="1" stop-color="rgb(100%, 26.708984%, 21.389771%)" offset="0.203125"/><stop stop-opacity="1" stop-color="rgb(100%, 27.003479%, 21.476746%)" offset="0.210938"/><stop stop-opacity="1" stop-color="rgb(100%, 27.297974%, 21.562195%)" offset="0.21875"/><stop stop-opacity="1" stop-color="rgb(100%, 27.592468%, 21.647644%)" offset="0.226562"/><stop stop-opacity="1" stop-color="rgb(100%, 27.886963%, 21.734619%)" offset="0.234375"/><stop stop-opacity="1" stop-color="rgb(100%, 28.181458%, 21.820068%)" offset="0.242188"/><stop stop-opacity="1" stop-color="rgb(100%, 28.475952%, 21.905518%)" offset="0.25"/><stop stop-opacity="1" stop-color="rgb(100%, 28.770447%, 21.992493%)" offset="0.257812"/><stop stop-opacity="1" stop-color="rgb(100%, 29.064941%, 22.077942%)" offset="0.265625"/><stop stop-opacity="1" stop-color="rgb(100%, 29.359436%, 22.163391%)" offset="0.273438"/><stop stop-opacity="1" stop-color="rgb(100%, 29.653931%, 22.250366%)" offset="0.28125"/><stop stop-opacity="1" stop-color="rgb(100%, 29.948425%, 22.335815%)" offset="0.289063"/><stop stop-opacity="1" stop-color="rgb(100%, 30.24292%, 22.421265%)" offset="0.296875"/><stop stop-opacity="1" stop-color="rgb(100%, 30.537415%, 22.50824%)" offset="0.304688"/><stop stop-opacity="1" stop-color="rgb(100%, 30.831909%, 22.593689%)" offset="0.3125"/><stop stop-opacity="1" stop-color="rgb(100%, 31.126404%, 22.679138%)" offset="0.320312"/><stop stop-opacity="1" stop-color="rgb(100%, 31.420898%, 22.766113%)" offset="0.328125"/><stop stop-opacity="1" stop-color="rgb(100%, 31.715393%, 22.851562%)" offset="0.335938"/><stop stop-opacity="1" stop-color="rgb(100%, 32.009888%, 22.937012%)" offset="0.34375"/><stop stop-opacity="1" stop-color="rgb(100%, 32.304382%, 23.022461%)" offset="0.351562"/><stop stop-opacity="1" stop-color="rgb(100%, 32.600403%, 23.109436%)" offset="0.359375"/><stop stop-opacity="1" stop-color="rgb(100%, 32.894897%, 23.194885%)" offset="0.367188"/><stop stop-opacity="1" stop-color="rgb(100%, 33.189392%, 23.280334%)" offset="0.375"/><stop stop-opacity="1" stop-color="rgb(100%, 33.483887%, 23.36731%)" offset="0.382812"/><stop stop-opacity="1" stop-color="rgb(100%, 33.778381%, 23.452759%)" offset="0.390625"/><stop stop-opacity="1" stop-color="rgb(100%, 34.072876%, 23.538208%)" offset="0.398438"/><stop stop-opacity="1" stop-color="rgb(100%, 34.367371%, 23.625183%)" offset="0.40625"/><stop stop-opacity="1" stop-color="rgb(100%, 34.661865%, 23.710632%)" offset="0.414062"/><stop stop-opacity="1" stop-color="rgb(100%, 34.95636%, 23.796082%)" offset="0.421875"/><stop stop-opacity="1" stop-color="rgb(100%, 35.250854%, 23.883057%)" offset="0.429688"/><stop stop-opacity="1" stop-color="rgb(100%, 35.545349%, 23.968506%)" offset="0.4375"/><stop stop-opacity="1" stop-color="rgb(100%, 35.839844%, 24.053955%)" offset="0.445312"/><stop stop-opacity="1" stop-color="rgb(100%, 36.134338%, 24.14093%)" offset="0.453125"/><stop stop-opacity="1" stop-color="rgb(100%, 36.428833%, 24.226379%)" offset="0.460938"/><stop stop-opacity="1" stop-color="rgb(100%, 36.723328%, 24.311829%)" offset="0.46875"/><stop stop-opacity="1" stop-color="rgb(100%, 37.017822%, 24.398804%)" offset="0.476562"/><stop stop-opacity="1" stop-color="rgb(100%, 37.312317%, 24.484253%)" offset="0.484375"/><stop stop-opacity="1" stop-color="rgb(100%, 37.606812%, 24.569702%)" offset="0.492188"/><stop stop-opacity="1" stop-color="rgb(100%, 37.901306%, 24.656677%)" offset="0.5"/><stop stop-opacity="1" stop-color="rgb(100%, 38.195801%, 24.742126%)" offset="0.507812"/><stop stop-opacity="1" stop-color="rgb(100%, 38.490295%, 24.827576%)" offset="0.515625"/><stop stop-opacity="1" stop-color="rgb(100%, 38.78479%, 24.914551%)" offset="0.523438"/><stop stop-opacity="1" stop-color="rgb(100%, 39.079285%, 25%)" offset="0.53125"/><stop stop-opacity="1" stop-color="rgb(100%, 39.373779%, 25.085449%)" offset="0.539062"/><stop stop-opacity="1" stop-color="rgb(100%, 39.668274%, 25.170898%)" offset="0.546875"/><stop stop-opacity="1" stop-color="rgb(100%, 39.962769%, 25.257874%)" offset="0.554688"/><stop stop-opacity="1" stop-color="rgb(100%, 40.257263%, 25.343323%)" offset="0.5625"/><stop stop-opacity="1" stop-color="rgb(100%, 40.551758%, 25.428772%)" offset="0.570312"/><stop stop-opacity="1" stop-color="rgb(100%, 40.846252%, 25.515747%)" offset="0.578125"/><stop stop-opacity="1" stop-color="rgb(100%, 41.140747%, 25.601196%)" offset="0.585938"/><stop stop-opacity="1" stop-color="rgb(100%, 41.435242%, 25.686646%)" offset="0.59375"/><stop stop-opacity="1" stop-color="rgb(100%, 41.729736%, 25.773621%)" offset="0.601563"/><stop stop-opacity="1" stop-color="rgb(100%, 42.024231%, 25.85907%)" offset="0.609375"/><stop stop-opacity="1" stop-color="rgb(100%, 42.318726%, 25.944519%)" offset="0.617188"/><stop stop-opacity="1" stop-color="rgb(100%, 42.61322%, 26.031494%)" offset="0.625"/><stop stop-opacity="1" stop-color="rgb(100%, 42.907715%, 26.116943%)" offset="0.632812"/><stop stop-opacity="1" stop-color="rgb(100%, 43.202209%, 26.202393%)" offset="0.640625"/><stop stop-opacity="1" stop-color="rgb(100%, 43.496704%, 26.289368%)" offset="0.648438"/><stop stop-opacity="1" stop-color="rgb(100%, 43.791199%, 26.374817%)" offset="0.65625"/><stop stop-opacity="1" stop-color="rgb(100%, 44.085693%, 26.460266%)" offset="0.664063"/><stop stop-opacity="1" stop-color="rgb(100%, 44.380188%, 26.547241%)" offset="0.671875"/><stop stop-opacity="1" stop-color="rgb(100%, 44.674683%, 26.63269%)" offset="0.679688"/><stop stop-opacity="1" stop-color="rgb(100%, 44.970703%, 26.71814%)" offset="0.6875"/><stop stop-opacity="1" stop-color="rgb(100%, 45.265198%, 26.805115%)" offset="0.695313"/><stop stop-opacity="1" stop-color="rgb(100%, 45.559692%, 26.890564%)" offset="0.703125"/><stop stop-opacity="1" stop-color="rgb(100%, 45.854187%, 26.976013%)" offset="0.710938"/><stop stop-opacity="1" stop-color="rgb(100%, 46.148682%, 27.062988%)" offset="0.71875"/><stop stop-opacity="1" stop-color="rgb(100%, 46.443176%, 27.148438%)" offset="0.726562"/><stop stop-opacity="1" stop-color="rgb(100%, 46.737671%, 27.233887%)" offset="0.734375"/><stop stop-opacity="1" stop-color="rgb(100%, 47.032166%, 27.319336%)" offset="0.742188"/><stop stop-opacity="1" stop-color="rgb(100%, 47.32666%, 27.406311%)" offset="0.75"/><stop stop-opacity="1" stop-color="rgb(100%, 47.621155%, 27.49176%)" offset="0.757812"/><stop stop-opacity="1" stop-color="rgb(100%, 47.915649%, 27.577209%)" offset="0.765625"/><stop stop-opacity="1" stop-color="rgb(100%, 48.210144%, 27.664185%)" offset="0.773438"/><stop stop-opacity="1" stop-color="rgb(100%, 48.504639%, 27.749634%)" offset="0.78125"/><stop stop-opacity="1" stop-color="rgb(100%, 48.799133%, 27.835083%)" offset="0.789062"/><stop stop-opacity="1" stop-color="rgb(100%, 49.093628%, 27.922058%)" offset="0.796875"/><stop stop-opacity="1" stop-color="rgb(100%, 49.388123%, 28.007507%)" offset="0.804688"/><stop stop-opacity="1" stop-color="rgb(100%, 49.682617%, 28.092957%)" offset="0.8125"/><stop stop-opacity="1" stop-color="rgb(100%, 49.977112%, 28.179932%)" offset="0.820313"/><stop stop-opacity="1" stop-color="rgb(100%, 50.271606%, 28.265381%)" offset="0.828125"/><stop stop-opacity="1" stop-color="rgb(100%, 50.566101%, 28.35083%)" offset="0.835938"/><stop stop-opacity="1" stop-color="rgb(100%, 50.860596%, 28.437805%)" offset="0.84375"/><stop stop-opacity="1" stop-color="rgb(100%, 51.15509%, 28.523254%)" offset="0.851562"/><stop stop-opacity="1" stop-color="rgb(100%, 51.449585%, 28.608704%)" offset="0.859375"/><stop stop-opacity="1" stop-color="rgb(100%, 51.74408%, 28.695679%)" offset="0.867188"/><stop stop-opacity="1" stop-color="rgb(100%, 52.038574%, 28.781128%)" offset="0.875"/><stop stop-opacity="1" stop-color="rgb(100%, 52.333069%, 28.866577%)" offset="0.882812"/><stop stop-opacity="1" stop-color="rgb(100%, 52.627563%, 28.953552%)" offset="0.890625"/><stop stop-opacity="1" stop-color="rgb(100%, 52.922058%, 29.039001%)" offset="0.898438"/><stop stop-opacity="1" stop-color="rgb(100%, 53.216553%, 29.124451%)" offset="0.90625"/><stop stop-opacity="1" stop-color="rgb(100%, 53.511047%, 29.211426%)" offset="0.914062"/><stop stop-opacity="1" stop-color="rgb(100%, 53.805542%, 29.296875%)" offset="0.921875"/><stop stop-opacity="1" stop-color="rgb(100%, 54.100037%, 29.382324%)" offset="0.929688"/><stop stop-opacity="1" stop-color="rgb(100%, 54.394531%, 29.467773%)" offset="0.9375"/><stop stop-opacity="1" stop-color="rgb(100%, 54.689026%, 29.554749%)" offset="0.945312"/><stop stop-opacity="1" stop-color="rgb(100%, 54.983521%, 29.640198%)" offset="0.953125"/><stop stop-opacity="1" stop-color="rgb(100%, 55.278015%, 29.725647%)" offset="0.960938"/><stop stop-opacity="1" stop-color="rgb(100%, 55.57251%, 29.812622%)" offset="0.96875"/><stop stop-opacity="1" stop-color="rgb(100%, 55.867004%, 29.898071%)" offset="0.976562"/><stop stop-opacity="1" stop-color="rgb(100%, 56.161499%, 29.983521%)" offset="0.984375"/><stop stop-opacity="1" stop-color="rgb(100%, 56.455994%, 30.070496%)" offset="0.992188"/><stop stop-opacity="1" stop-color="rgb(100%, 56.750488%, 30.155945%)" offset="1"/></linearGradient><clipPath id="9e31254fd3"><path d="M 62.292969 124.898438 L 312.792969 124.898438 L 312.792969 250.148438 L 62.292969 250.148438 Z M 62.292969 124.898438 " clip-rule="nonzero"/></clipPath><clipPath id="ef9db70889"><path d="M 62.292969 187.5 C 62.292969 204.101562 68.890625 220.027344 80.628906 231.765625 C 92.371094 243.507812 108.292969 250.101562 124.898438 250.101562 L 250.101562 250.101562 C 266.707031 250.101562 282.628906 243.507812 294.371094 231.765625 C 306.109375 220.027344 312.707031 204.101562 312.707031 187.5 C 312.707031 170.898438 306.109375 154.972656 294.371094 143.234375 C 282.628906 131.492188 266.707031 124.898438 250.101562 124.898438 L 124.898438 124.898438 C 108.292969 124.898438 92.371094 131.492188 80.628906 143.234375 C 68.890625 154.972656 62.292969 170.898438 62.292969 187.5 Z M 62.292969 187.5 " clip-rule="nonzero"/></clipPath><clipPath id="7dd37eb02b"><path d="M 198 137 L 299 137 L 299 238 L 198 238 Z M 198 137 " clip-rule="nonzero"/></clipPath><clipPath id="9ffd045f04"><path d="M 62.292969 187.5 C 62.292969 204.101562 68.890625 220.027344 80.628906 231.765625 C 92.371094 243.507812 108.292969 250.101562 124.898438 250.101562 L 250.101562 250.101562 C 266.707031 250.101562 282.628906 243.507812 294.371094 231.765625 C 306.109375 220.027344 312.707031 204.101562 312.707031 187.5 C 312.707031 170.898438 306.109375 154.972656 294.371094 143.234375 C 282.628906 131.492188 266.707031 124.898438 250.101562 124.898438 L 124.898438 124.898438 C 108.292969 124.898438 92.371094 131.492188 80.628906 143.234375 C 68.890625 154.972656 62.292969 170.898438 62.292969 187.5 Z M 62.292969 187.5 " clip-rule="nonzero"/></clipPath></defs><g clip-path="url(#5c8463775e)"><rect x="-37.5" fill="url(#3d5e13f62f)" width="450" y="-37.499999" height="449.999989"/></g><g clip-path="url(#9e31254fd3)"><g clip-path="url(#ef9db70889)"><path fill="#000000" d="M 253.824219 124.898438 L 121.167969 124.898438 C 88.824219 124.898438 62.292969 151.425781 62.292969 183.773438 L 62.292969 191.074219 C 62.292969 223.570312 88.824219 250.101562 121.167969 250.101562 L 253.675781 250.101562 C 286.019531 250.101562 312.550781 223.570312 312.550781 191.222656 L 312.550781 183.921875 C 312.699219 151.425781 286.167969 124.898438 253.824219 124.898438 Z M 253.824219 124.898438 " fill-opacity="1" fill-rule="nonzero"/></g></g><g clip-path="url(#7dd37eb02b)"><g clip-path="url(#9ffd045f04)"><path fill="#f05831" d="M 298.09375 187.5 C 298.09375 189.128906 298.011719 190.753906 297.851562 192.378906 C 297.691406 194 297.453125 195.609375 297.136719 197.210938 C 296.816406 198.808594 296.421875 200.390625 295.949219 201.949219 C 295.476562 203.507812 294.925781 205.042969 294.304688 206.550781 C 293.679688 208.054688 292.984375 209.527344 292.214844 210.964844 C 291.445312 212.402344 290.609375 213.800781 289.703125 215.15625 C 288.796875 216.511719 287.828125 217.820312 286.792969 219.082031 C 285.757812 220.339844 284.664062 221.546875 283.511719 222.699219 C 282.359375 223.851562 281.152344 224.945312 279.890625 225.980469 C 278.632812 227.015625 277.324219 227.984375 275.96875 228.890625 C 274.613281 229.796875 273.214844 230.632812 271.777344 231.402344 C 270.339844 232.171875 268.867188 232.867188 267.359375 233.492188 C 265.855469 234.117188 264.320312 234.664062 262.761719 235.136719 C 261.199219 235.609375 259.621094 236.007812 258.019531 236.324219 C 256.421875 236.644531 254.8125 236.882812 253.1875 237.042969 C 251.566406 237.203125 249.941406 237.28125 248.308594 237.28125 C 246.679688 237.28125 245.050781 237.203125 243.429688 237.042969 C 241.808594 236.882812 240.195312 236.644531 238.597656 236.324219 C 236.996094 236.007812 235.417969 235.609375 233.859375 235.136719 C 232.296875 234.664062 230.765625 234.117188 229.257812 233.492188 C 227.75 232.867188 226.28125 232.171875 224.839844 231.402344 C 223.402344 230.632812 222.007812 229.796875 220.652344 228.890625 C 219.296875 227.984375 217.988281 227.015625 216.726562 225.980469 C 215.464844 224.945312 214.261719 223.851562 213.105469 222.699219 C 211.953125 221.546875 210.859375 220.339844 209.828125 219.082031 C 208.792969 217.820312 207.820312 216.511719 206.917969 215.15625 C 206.011719 213.800781 205.171875 212.402344 204.40625 210.964844 C 203.636719 209.527344 202.941406 208.054688 202.316406 206.550781 C 201.691406 205.042969 201.144531 203.507812 200.667969 201.949219 C 200.195312 200.390625 199.800781 198.808594 199.484375 197.210938 C 199.164062 195.609375 198.925781 194 198.765625 192.378906 C 198.605469 190.753906 198.527344 189.128906 198.527344 187.5 C 198.527344 185.867188 198.605469 184.242188 198.765625 182.617188 C 198.925781 180.996094 199.164062 179.386719 199.484375 177.785156 C 199.800781 176.1875 200.195312 174.605469 200.667969 173.046875 C 201.144531 171.488281 201.691406 169.953125 202.316406 168.445312 C 202.941406 166.941406 203.636719 165.46875 204.40625 164.03125 C 205.171875 162.59375 206.011719 161.195312 206.917969 159.839844 C 207.820312 158.484375 208.792969 157.175781 209.828125 155.917969 C 210.859375 154.65625 211.953125 153.449219 213.105469 152.296875 C 214.261719 151.144531 215.464844 150.050781 216.726562 149.015625 C 217.988281 147.980469 219.296875 147.011719 220.652344 146.105469 C 222.007812 145.199219 223.402344 144.363281 224.839844 143.59375 C 226.28125 142.824219 227.75 142.128906 229.257812 141.503906 C 230.765625 140.878906 232.296875 140.332031 233.859375 139.859375 C 235.417969 139.386719 236.996094 138.988281 238.597656 138.671875 C 240.195312 138.351562 241.808594 138.113281 243.429688 137.953125 C 245.050781 137.792969 246.679688 137.714844 248.308594 137.714844 C 249.941406 137.714844 251.566406 137.792969 253.1875 137.953125 C 254.8125 138.113281 256.421875 138.351562 258.019531 138.671875 C 259.621094 138.988281 261.199219 139.386719 262.761719 139.859375 C 264.320312 140.332031 265.855469 140.878906 267.359375 141.503906 C 268.867188 142.128906 270.339844 142.824219 271.777344 143.59375 C 273.214844 144.363281 274.613281 145.199219 275.96875 146.105469 C 277.324219 147.011719 278.632812 147.980469 279.890625 149.015625 C 281.152344 150.050781 282.359375 151.144531 283.511719 152.296875 C 284.664062 153.449219 285.757812 154.65625 286.792969 155.917969 C 287.828125 157.175781 288.796875 158.484375 289.703125 159.839844 C 290.609375 161.195312 291.445312 162.59375 292.214844 164.03125 C 292.984375 165.46875 293.679688 166.941406 294.304688 168.445312 C 294.925781 169.953125 295.476562 171.488281 295.949219 173.046875 C 296.421875 174.605469 296.816406 176.1875 297.136719 177.785156 C 297.453125 179.386719 297.691406 180.996094 297.851562 182.617188 C 298.011719 184.242188 298.09375 185.867188 298.09375 187.5 Z M 298.09375 187.5 " fill-opacity="1" fill-rule="nonzero"/></g></g></svg>