<svg xmlns="http://www.w3.org/2000/svg" xmlns:xlink="http://www.w3.org/1999/xlink" width="500" zoomAndPan="magnify" viewBox="0 0 375 187.499995" height="250" preserveAspectRatio="xMidYMid meet" version="1.0"><defs><clipPath id="5823e2ac9a"><path d="M 0.5 0 L 374.5 0 L 374.5 187 L 0.5 187 Z M 0.5 0 " clip-rule="nonzero"/></clipPath><clipPath id="5d1964e5b7"><path d="M 281 0 C 332.640625 0 374.5 41.863281 374.5 93.5 C 374.5 145.140625 332.640625 187 281 187 L 94 187 C 42.359375 187 0.5 145.140625 0.5 93.5 C 0.5 41.863281 42.359375 0 94 0 Z M 281 0 " clip-rule="nonzero"/></clipPath><linearGradient x1="0" gradientTransform="matrix(0.730474, 0, 0, 0.730474, 0.498675, 0)" y1="128" x2="511.999973" gradientUnits="userSpaceOnUse" y2="128" id="2b492fa3cf"><stop stop-opacity="1" stop-color="rgb(100%, 19.198608%, 19.198608%)" offset="0"/><stop stop-opacity="1" stop-color="rgb(100%, 19.345093%, 19.241333%)" offset="0.0078125"/><stop stop-opacity="1" stop-color="rgb(100%, 19.639587%, 19.328308%)" offset="0.015625"/><stop stop-opacity="1" stop-color="rgb(100%, 19.934082%, 19.413757%)" offset="0.0234375"/><stop stop-opacity="1" stop-color="rgb(100%, 20.230103%, 19.499207%)" offset="0.03125"/><stop stop-opacity="1" stop-color="rgb(100%, 20.524597%, 19.586182%)" offset="0.0390625"/><stop stop-opacity="1" stop-color="rgb(100%, 20.819092%, 19.671631%)" offset="0.046875"/><stop stop-opacity="1" stop-color="rgb(100%, 21.113586%, 19.75708%)" offset="0.0546875"/><stop stop-opacity="1" stop-color="rgb(100%, 21.408081%, 19.844055%)" offset="0.0625"/><stop stop-opacity="1" stop-color="rgb(100%, 21.702576%, 19.929504%)" offset="0.0703125"/><stop stop-opacity="1" stop-color="rgb(100%, 21.99707%, 20.014954%)" offset="0.078125"/><stop stop-opacity="1" stop-color="rgb(100%, 22.291565%, 20.101929%)" offset="0.0859375"/><stop stop-opacity="1" stop-color="rgb(100%, 22.58606%, 20.187378%)" offset="0.09375"/><stop stop-opacity="1" stop-color="rgb(100%, 22.880554%, 20.272827%)" offset="0.101562"/><stop stop-opacity="1" stop-color="rgb(100%, 23.175049%, 20.359802%)" offset="0.109375"/><stop stop-opacity="1" stop-color="rgb(100%, 23.469543%, 20.445251%)" offset="0.117188"/><stop stop-opacity="1" stop-color="rgb(100%, 23.764038%, 20.530701%)" offset="0.125"/><stop stop-opacity="1" stop-color="rgb(100%, 24.058533%, 20.617676%)" offset="0.132812"/><stop stop-opacity="1" stop-color="rgb(100%, 24.353027%, 20.703125%)" offset="0.140625"/><stop stop-opacity="1" stop-color="rgb(100%, 24.647522%, 20.788574%)" offset="0.148438"/><stop stop-opacity="1" stop-color="rgb(100%, 24.942017%, 20.874023%)" offset="0.15625"/><stop stop-opacity="1" stop-color="rgb(100%, 25.236511%, 20.960999%)" offset="0.164063"/><stop stop-opacity="1" stop-color="rgb(100%, 25.531006%, 21.046448%)" offset="0.171875"/><stop stop-opacity="1" stop-color="rgb(100%, 25.8255%, 21.131897%)" offset="0.179688"/><stop stop-opacity="1" stop-color="rgb(100%, 26.119995%, 21.218872%)" offset="0.1875"/><stop stop-opacity="1" stop-color="rgb(100%, 26.41449%, 21.304321%)" offset="0.195312"/><stop stop-opacity="1" stop-color="rgb(100%, 26.708984%, 21.389771%)" offset="0.203125"/><stop stop-opacity="1" stop-color="rgb(100%, 27.003479%, 21.476746%)" offset="0.210938"/><stop stop-opacity="1" stop-color="rgb(100%, 27.297974%, 21.562195%)" offset="0.21875"/><stop stop-opacity="1" stop-color="rgb(100%, 27.592468%, 21.647644%)" offset="0.226562"/><stop stop-opacity="1" stop-color="rgb(100%, 27.886963%, 21.734619%)" offset="0.234375"/><stop stop-opacity="1" stop-color="rgb(100%, 28.181458%, 21.820068%)" offset="0.242188"/><stop stop-opacity="1" stop-color="rgb(100%, 28.475952%, 21.905518%)" offset="0.25"/><stop stop-opacity="1" stop-color="rgb(100%, 28.770447%, 21.992493%)" offset="0.257812"/><stop stop-opacity="1" stop-color="rgb(100%, 29.064941%, 22.077942%)" offset="0.265625"/><stop stop-opacity="1" stop-color="rgb(100%, 29.359436%, 22.163391%)" offset="0.273437"/><stop stop-opacity="1" stop-color="rgb(100%, 29.653931%, 22.250366%)" offset="0.28125"/><stop stop-opacity="1" stop-color="rgb(100%, 29.948425%, 22.335815%)" offset="0.289063"/><stop stop-opacity="1" stop-color="rgb(100%, 30.24292%, 22.421265%)" offset="0.296875"/><stop stop-opacity="1" stop-color="rgb(100%, 30.537415%, 22.50824%)" offset="0.304688"/><stop stop-opacity="1" stop-color="rgb(100%, 30.831909%, 22.593689%)" offset="0.3125"/><stop stop-opacity="1" stop-color="rgb(100%, 31.126404%, 22.679138%)" offset="0.320313"/><stop stop-opacity="1" stop-color="rgb(100%, 31.420898%, 22.766113%)" offset="0.328125"/><stop stop-opacity="1" stop-color="rgb(100%, 31.715393%, 22.851562%)" offset="0.335938"/><stop stop-opacity="1" stop-color="rgb(100%, 32.009888%, 22.937012%)" offset="0.34375"/><stop stop-opacity="1" stop-color="rgb(100%, 32.304382%, 23.022461%)" offset="0.351562"/><stop stop-opacity="1" stop-color="rgb(100%, 32.600403%, 23.109436%)" offset="0.359375"/><stop stop-opacity="1" stop-color="rgb(100%, 32.894897%, 23.194885%)" offset="0.367188"/><stop stop-opacity="1" stop-color="rgb(100%, 33.189392%, 23.280334%)" offset="0.375"/><stop stop-opacity="1" stop-color="rgb(100%, 33.483887%, 23.36731%)" offset="0.382812"/><stop stop-opacity="1" stop-color="rgb(100%, 33.778381%, 23.452759%)" offset="0.390625"/><stop stop-opacity="1" stop-color="rgb(100%, 34.072876%, 23.538208%)" offset="0.398438"/><stop stop-opacity="1" stop-color="rgb(100%, 34.367371%, 23.625183%)" offset="0.40625"/><stop stop-opacity="1" stop-color="rgb(100%, 34.661865%, 23.710632%)" offset="0.414062"/><stop stop-opacity="1" stop-color="rgb(100%, 34.95636%, 23.796082%)" offset="0.421875"/><stop stop-opacity="1" stop-color="rgb(100%, 35.250854%, 23.883057%)" offset="0.429688"/><stop stop-opacity="1" stop-color="rgb(100%, 35.545349%, 23.968506%)" offset="0.4375"/><stop stop-opacity="1" stop-color="rgb(100%, 35.839844%, 24.053955%)" offset="0.445313"/><stop stop-opacity="1" stop-color="rgb(100%, 36.134338%, 24.14093%)" offset="0.453125"/><stop stop-opacity="1" stop-color="rgb(100%, 36.428833%, 24.226379%)" offset="0.460938"/><stop stop-opacity="1" stop-color="rgb(100%, 36.723328%, 24.311829%)" offset="0.46875"/><stop stop-opacity="1" stop-color="rgb(100%, 37.017822%, 24.398804%)" offset="0.476562"/><stop stop-opacity="1" stop-color="rgb(100%, 37.312317%, 24.484253%)" offset="0.484375"/><stop stop-opacity="1" stop-color="rgb(100%, 37.606812%, 24.569702%)" offset="0.492188"/><stop stop-opacity="1" stop-color="rgb(100%, 37.901306%, 24.656677%)" offset="0.5"/><stop stop-opacity="1" stop-color="rgb(100%, 38.195801%, 24.742126%)" offset="0.507812"/><stop stop-opacity="1" stop-color="rgb(100%, 38.490295%, 24.827576%)" offset="0.515625"/><stop stop-opacity="1" stop-color="rgb(100%, 38.78479%, 24.914551%)" offset="0.523437"/><stop stop-opacity="1" stop-color="rgb(100%, 39.079285%, 25%)" offset="0.53125"/><stop stop-opacity="1" stop-color="rgb(100%, 39.373779%, 25.085449%)" offset="0.539062"/><stop stop-opacity="1" stop-color="rgb(100%, 39.668274%, 25.170898%)" offset="0.546875"/><stop stop-opacity="1" stop-color="rgb(100%, 39.962769%, 25.257874%)" offset="0.554688"/><stop stop-opacity="1" stop-color="rgb(100%, 40.257263%, 25.343323%)" offset="0.5625"/><stop stop-opacity="1" stop-color="rgb(100%, 40.551758%, 25.428772%)" offset="0.570312"/><stop stop-opacity="1" stop-color="rgb(100%, 40.846252%, 25.515747%)" offset="0.578125"/><stop stop-opacity="1" stop-color="rgb(100%, 41.140747%, 25.601196%)" offset="0.585938"/><stop stop-opacity="1" stop-color="rgb(100%, 41.435242%, 25.686646%)" offset="0.59375"/><stop stop-opacity="1" stop-color="rgb(100%, 41.729736%, 25.773621%)" offset="0.601562"/><stop stop-opacity="1" stop-color="rgb(100%, 42.024231%, 25.85907%)" offset="0.609375"/><stop stop-opacity="1" stop-color="rgb(100%, 42.318726%, 25.944519%)" offset="0.617188"/><stop stop-opacity="1" stop-color="rgb(100%, 42.61322%, 26.031494%)" offset="0.625"/><stop stop-opacity="1" stop-color="rgb(100%, 42.907715%, 26.116943%)" offset="0.632813"/><stop stop-opacity="1" stop-color="rgb(100%, 43.202209%, 26.202393%)" offset="0.640625"/><stop stop-opacity="1" stop-color="rgb(100%, 43.496704%, 26.289368%)" offset="0.648438"/><stop stop-opacity="1" stop-color="rgb(100%, 43.791199%, 26.374817%)" offset="0.65625"/><stop stop-opacity="1" stop-color="rgb(100%, 44.085693%, 26.460266%)" offset="0.664063"/><stop stop-opacity="1" stop-color="rgb(100%, 44.380188%, 26.547241%)" offset="0.671875"/><stop stop-opacity="1" stop-color="rgb(100%, 44.674683%, 26.63269%)" offset="0.679688"/><stop stop-opacity="1" stop-color="rgb(100%, 44.970703%, 26.71814%)" offset="0.6875"/><stop stop-opacity="1" stop-color="rgb(100%, 45.265198%, 26.805115%)" offset="0.695312"/><stop stop-opacity="1" stop-color="rgb(100%, 45.559692%, 26.890564%)" offset="0.703125"/><stop stop-opacity="1" stop-color="rgb(100%, 45.854187%, 26.976013%)" offset="0.710938"/><stop stop-opacity="1" stop-color="rgb(100%, 46.148682%, 27.062988%)" offset="0.71875"/><stop stop-opacity="1" stop-color="rgb(100%, 46.443176%, 27.148438%)" offset="0.726562"/><stop stop-opacity="1" stop-color="rgb(100%, 46.737671%, 27.233887%)" offset="0.734375"/><stop stop-opacity="1" stop-color="rgb(100%, 47.032166%, 27.319336%)" offset="0.742188"/><stop stop-opacity="1" stop-color="rgb(100%, 47.32666%, 27.406311%)" offset="0.75"/><stop stop-opacity="1" stop-color="rgb(100%, 47.621155%, 27.49176%)" offset="0.757813"/><stop stop-opacity="1" stop-color="rgb(100%, 47.915649%, 27.577209%)" offset="0.765625"/><stop stop-opacity="1" stop-color="rgb(100%, 48.210144%, 27.664185%)" offset="0.773438"/><stop stop-opacity="1" stop-color="rgb(100%, 48.504639%, 27.749634%)" offset="0.78125"/><stop stop-opacity="1" stop-color="rgb(100%, 48.799133%, 27.835083%)" offset="0.789062"/><stop stop-opacity="1" stop-color="rgb(100%, 49.093628%, 27.922058%)" offset="0.796875"/><stop stop-opacity="1" stop-color="rgb(100%, 49.388123%, 28.007507%)" offset="0.804688"/><stop stop-opacity="1" stop-color="rgb(100%, 49.682617%, 28.092957%)" offset="0.8125"/><stop stop-opacity="1" stop-color="rgb(100%, 49.977112%, 28.179932%)" offset="0.820312"/><stop stop-opacity="1" stop-color="rgb(100%, 50.271606%, 28.265381%)" offset="0.828125"/><stop stop-opacity="1" stop-color="rgb(100%, 50.566101%, 28.35083%)" offset="0.835938"/><stop stop-opacity="1" stop-color="rgb(100%, 50.860596%, 28.437805%)" offset="0.84375"/><stop stop-opacity="1" stop-color="rgb(100%, 51.15509%, 28.523254%)" offset="0.851562"/><stop stop-opacity="1" stop-color="rgb(100%, 51.449585%, 28.608704%)" offset="0.859375"/><stop stop-opacity="1" stop-color="rgb(100%, 51.74408%, 28.695679%)" offset="0.867188"/><stop stop-opacity="1" stop-color="rgb(100%, 52.038574%, 28.781128%)" offset="0.875"/><stop stop-opacity="1" stop-color="rgb(100%, 52.333069%, 28.866577%)" offset="0.882812"/><stop stop-opacity="1" stop-color="rgb(100%, 52.627563%, 28.953552%)" offset="0.890625"/><stop stop-opacity="1" stop-color="rgb(100%, 52.922058%, 29.039001%)" offset="0.898438"/><stop stop-opacity="1" stop-color="rgb(100%, 53.216553%, 29.124451%)" offset="0.90625"/><stop stop-opacity="1" stop-color="rgb(100%, 53.511047%, 29.211426%)" offset="0.914063"/><stop stop-opacity="1" stop-color="rgb(100%, 53.805542%, 29.296875%)" offset="0.921875"/><stop stop-opacity="1" stop-color="rgb(100%, 54.100037%, 29.382324%)" offset="0.929688"/><stop stop-opacity="1" stop-color="rgb(100%, 54.394531%, 29.467773%)" offset="0.9375"/><stop stop-opacity="1" stop-color="rgb(100%, 54.689026%, 29.554749%)" offset="0.945312"/><stop stop-opacity="1" stop-color="rgb(100%, 54.983521%, 29.640198%)" offset="0.953125"/><stop stop-opacity="1" stop-color="rgb(100%, 55.278015%, 29.725647%)" offset="0.960938"/><stop stop-opacity="1" stop-color="rgb(100%, 55.57251%, 29.812622%)" offset="0.96875"/><stop stop-opacity="1" stop-color="rgb(100%, 55.867004%, 29.898071%)" offset="0.976562"/><stop stop-opacity="1" stop-color="rgb(100%, 56.161499%, 29.983521%)" offset="0.984375"/><stop stop-opacity="1" stop-color="rgb(100%, 56.455994%, 30.070496%)" offset="0.992188"/><stop stop-opacity="1" stop-color="rgb(100%, 56.750488%, 30.155945%)" offset="1"/></linearGradient><clipPath id="0edc7c2820"><path d="M 88.0625 43.78125 L 287 43.78125 L 287 143.265625 L 88.0625 143.265625 Z M 88.0625 43.78125 " clip-rule="nonzero"/></clipPath><clipPath id="18a81a316f"><path d="M 88.0625 93.5 C 88.0625 120.960938 110.324219 143.21875 137.78125 143.21875 L 237.21875 143.21875 C 264.675781 143.21875 286.9375 120.960938 286.9375 93.5 C 286.9375 66.042969 264.675781 43.78125 237.21875 43.78125 L 137.78125 43.78125 C 110.324219 43.78125 88.0625 66.042969 88.0625 93.5 Z M 88.0625 93.5 " clip-rule="nonzero"/></clipPath><clipPath id="be11ec6528"><path d="M 196 53 L 276 53 L 276 134 L 196 134 Z M 196 53 " clip-rule="nonzero"/></clipPath><clipPath id="2696c05dc3"><path d="M 88.0625 93.5 C 88.0625 120.960938 110.324219 143.21875 137.78125 143.21875 L 237.21875 143.21875 C 264.675781 143.21875 286.9375 120.960938 286.9375 93.5 C 286.9375 66.042969 264.675781 43.78125 237.21875 43.78125 L 137.78125 43.78125 C 110.324219 43.78125 88.0625 66.042969 88.0625 93.5 Z M 88.0625 93.5 " clip-rule="nonzero"/></clipPath></defs><g clip-path="url(#5823e2ac9a)"><g clip-path="url(#5d1964e5b7)"><path fill="url(#2b492fa3cf)" d="M 0.5 0 L 0.5 187 L 374.5 187 L 374.5 0 Z M 0.5 0 " fill-rule="nonzero"/></g></g><g clip-path="url(#0edc7c2820)"><g clip-path="url(#18a81a316f)"><path fill="#000000" d="M 240.167969 43.78125 L 134.824219 43.78125 C 109.136719 43.78125 88.070312 64.851562 88.070312 90.535156 L 88.070312 96.335938 C 88.070312 122.140625 109.136719 143.207031 134.824219 143.207031 L 240.050781 143.207031 C 265.734375 143.207031 286.804688 122.140625 286.804688 96.453125 L 286.804688 90.65625 C 286.921875 64.851562 265.851562 43.78125 240.167969 43.78125 Z M 240.167969 43.78125 " fill-opacity="1" fill-rule="nonzero"/></g></g><g clip-path="url(#be11ec6528)"><g clip-path="url(#2696c05dc3)"><path fill="#f05831" d="M 275.324219 93.496094 C 275.324219 94.789062 275.257812 96.082031 275.132812 97.371094 C 275.003906 98.660156 274.816406 99.9375 274.5625 101.207031 C 274.308594 102.476562 273.996094 103.734375 273.621094 104.972656 C 273.246094 106.210938 272.808594 107.429688 272.3125 108.625 C 271.816406 109.820312 271.265625 110.988281 270.65625 112.132812 C 270.042969 113.273438 269.378906 114.382812 268.660156 115.460938 C 267.941406 116.535156 267.171875 117.574219 266.347656 118.574219 C 265.527344 119.578125 264.660156 120.535156 263.742188 121.449219 C 262.828125 122.367188 261.871094 123.234375 260.867188 124.054688 C 259.867188 124.878906 258.828125 125.648438 257.753906 126.367188 C 256.675781 127.085938 255.566406 127.75 254.425781 128.363281 C 253.28125 128.972656 252.113281 129.523438 250.917969 130.019531 C 249.722656 130.515625 248.503906 130.953125 247.265625 131.328125 C 246.027344 131.703125 244.769531 132.015625 243.5 132.269531 C 242.230469 132.523438 240.953125 132.710938 239.664062 132.839844 C 238.375 132.964844 237.082031 133.03125 235.789062 133.03125 C 234.492188 133.03125 233.203125 132.964844 231.914062 132.839844 C 230.625 132.710938 229.347656 132.523438 228.074219 132.269531 C 226.804688 132.015625 225.550781 131.703125 224.3125 131.328125 C 223.074219 130.953125 221.855469 130.515625 220.660156 130.019531 C 219.464844 129.523438 218.292969 128.972656 217.152344 128.363281 C 216.011719 127.75 214.902344 127.085938 213.824219 126.367188 C 212.75 125.648438 211.710938 124.878906 210.707031 124.054688 C 209.707031 123.234375 208.75 122.367188 207.835938 121.449219 C 206.917969 120.535156 206.050781 119.578125 205.230469 118.574219 C 204.40625 117.574219 203.636719 116.535156 202.917969 115.460938 C 202.199219 114.382812 201.535156 113.273438 200.921875 112.132812 C 200.3125 110.988281 199.757812 109.820312 199.265625 108.625 C 198.769531 107.429688 198.332031 106.210938 197.957031 104.972656 C 197.582031 103.734375 197.265625 102.476562 197.015625 101.207031 C 196.761719 99.9375 196.570312 98.660156 196.445312 97.371094 C 196.320312 96.082031 196.253906 94.789062 196.253906 93.496094 C 196.253906 92.199219 196.320312 90.910156 196.445312 89.621094 C 196.570312 88.332031 196.761719 87.054688 197.015625 85.78125 C 197.265625 84.511719 197.582031 83.257812 197.957031 82.019531 C 198.332031 80.78125 198.769531 79.5625 199.265625 78.367188 C 199.757812 77.171875 200.3125 76 200.921875 74.859375 C 201.535156 73.71875 202.199219 72.609375 202.917969 71.53125 C 203.636719 70.457031 204.40625 69.417969 205.230469 68.414062 C 206.050781 67.414062 206.917969 66.457031 207.835938 65.542969 C 208.75 64.625 209.707031 63.757812 210.707031 62.9375 C 211.710938 62.113281 212.75 61.34375 213.824219 60.625 C 214.902344 59.90625 216.011719 59.242188 217.152344 58.628906 C 218.292969 58.019531 219.464844 57.464844 220.660156 56.972656 C 221.855469 56.476562 223.074219 56.039062 224.3125 55.664062 C 225.550781 55.289062 226.804688 54.972656 228.074219 54.722656 C 229.347656 54.46875 230.625 54.277344 231.914062 54.152344 C 233.203125 54.023438 234.492188 53.960938 235.789062 53.960938 C 237.082031 53.960938 238.375 54.023438 239.664062 54.152344 C 240.953125 54.277344 242.230469 54.46875 243.5 54.722656 C 244.769531 54.972656 246.027344 55.289062 247.265625 55.664062 C 248.503906 56.039062 249.722656 56.476562 250.917969 56.972656 C 252.113281 57.464844 253.28125 58.019531 254.425781 58.628906 C 255.566406 59.242188 256.675781 59.90625 257.753906 60.625 C 258.828125 61.34375 259.867188 62.113281 260.867188 62.9375 C 261.871094 63.757812 262.828125 64.625 263.742188 65.542969 C 264.660156 66.457031 265.527344 67.414062 266.347656 68.414062 C 267.171875 69.417969 267.941406 70.457031 268.660156 71.53125 C 269.378906 72.609375 270.042969 73.71875 270.65625 74.859375 C 271.265625 76 271.816406 77.171875 272.3125 78.367188 C 272.808594 79.5625 273.246094 80.78125 273.621094 82.019531 C 273.996094 83.257812 274.308594 84.511719 274.5625 85.78125 C 274.816406 87.054688 275.003906 88.332031 275.132812 89.621094 C 275.257812 90.910156 275.324219 92.199219 275.324219 93.496094 Z M 275.324219 93.496094 " fill-opacity="1" fill-rule="nonzero"/></g></g></svg>