<svg xmlns="http://www.w3.org/2000/svg" xmlns:xlink="http://www.w3.org/1999/xlink" width="490" zoomAndPan="magnify" viewBox="0 0 367.5 123.750003" height="165" preserveAspectRatio="xMidYMid meet" version="1.0"><defs><g/><clipPath id="a2cb1a2164"><path d="M 0.121094 6.113281 L 358.648438 6.113281 L 358.648438 113.148438 L 0.121094 113.148438 Z M 0.121094 6.113281 " clip-rule="nonzero"/></clipPath><clipPath id="ba9a8f2e80"><path d="M 53.675781 6.113281 L 305.351562 6.113281 C 319.550781 6.113281 333.167969 11.753906 343.210938 21.796875 C 353.25 31.835938 358.890625 45.453125 358.890625 59.65625 C 358.890625 73.855469 353.25 87.472656 343.210938 97.511719 C 333.167969 107.554688 319.550781 113.195312 305.351562 113.195312 L 53.675781 113.195312 C 39.472656 113.195312 25.855469 107.554688 15.816406 97.511719 C 5.773438 87.472656 0.132812 73.855469 0.132812 59.65625 C 0.132812 45.453125 5.773438 31.835938 15.816406 21.796875 C 25.855469 11.753906 39.472656 6.113281 53.675781 6.113281 Z M 53.675781 6.113281 " clip-rule="nonzero"/></clipPath><linearGradient x1="-0.00000000012047" gradientTransform="matrix(4.467945, 0, 0, 4.467945, 0.000000000538253, -0.00000349964)" y1="16.01" x2="107.20423" gradientUnits="userSpaceOnUse" y2="16.01" id="33af3907ae"><stop stop-opacity="1" stop-color="rgb(100%, 19.198608%, 19.198608%)" offset="0"/><stop stop-opacity="1" stop-color="rgb(100%, 19.345093%, 19.241333%)" offset="0.0078125"/><stop stop-opacity="1" stop-color="rgb(100%, 19.639587%, 19.328308%)" offset="0.015625"/><stop stop-opacity="1" stop-color="rgb(100%, 19.934082%, 19.413757%)" offset="0.0234375"/><stop stop-opacity="1" stop-color="rgb(100%, 20.228577%, 19.499207%)" offset="0.03125"/><stop stop-opacity="1" stop-color="rgb(100%, 20.523071%, 19.586182%)" offset="0.0390625"/><stop stop-opacity="1" stop-color="rgb(100%, 20.817566%, 19.671631%)" offset="0.046875"/><stop stop-opacity="1" stop-color="rgb(100%, 21.112061%, 19.75708%)" offset="0.0546875"/><stop stop-opacity="1" stop-color="rgb(100%, 21.406555%, 19.842529%)" offset="0.0625"/><stop stop-opacity="1" stop-color="rgb(100%, 21.70105%, 19.929504%)" offset="0.0703125"/><stop stop-opacity="1" stop-color="rgb(100%, 21.994019%, 20.014954%)" offset="0.078125"/><stop stop-opacity="1" stop-color="rgb(100%, 22.288513%, 20.100403%)" offset="0.0859375"/><stop stop-opacity="1" stop-color="rgb(100%, 22.583008%, 20.187378%)" offset="0.09375"/><stop stop-opacity="1" stop-color="rgb(100%, 22.877502%, 20.272827%)" offset="0.101562"/><stop stop-opacity="1" stop-color="rgb(100%, 23.171997%, 20.358276%)" offset="0.109375"/><stop stop-opacity="1" stop-color="rgb(100%, 23.466492%, 20.443726%)" offset="0.117187"/><stop stop-opacity="1" stop-color="rgb(100%, 23.760986%, 20.530701%)" offset="0.125"/><stop stop-opacity="1" stop-color="rgb(100%, 24.055481%, 20.61615%)" offset="0.132812"/><stop stop-opacity="1" stop-color="rgb(100%, 24.349976%, 20.701599%)" offset="0.140625"/><stop stop-opacity="1" stop-color="rgb(100%, 24.642944%, 20.787048%)" offset="0.148438"/><stop stop-opacity="1" stop-color="rgb(100%, 24.937439%, 20.874023%)" offset="0.15625"/><stop stop-opacity="1" stop-color="rgb(100%, 25.231934%, 20.959473%)" offset="0.164062"/><stop stop-opacity="1" stop-color="rgb(100%, 25.526428%, 21.044922%)" offset="0.171875"/><stop stop-opacity="1" stop-color="rgb(100%, 25.820923%, 21.131897%)" offset="0.179688"/><stop stop-opacity="1" stop-color="rgb(100%, 26.115417%, 21.217346%)" offset="0.1875"/><stop stop-opacity="1" stop-color="rgb(100%, 26.409912%, 21.302795%)" offset="0.195312"/><stop stop-opacity="1" stop-color="rgb(100%, 26.704407%, 21.388245%)" offset="0.203125"/><stop stop-opacity="1" stop-color="rgb(100%, 26.998901%, 21.47522%)" offset="0.210938"/><stop stop-opacity="1" stop-color="rgb(100%, 27.293396%, 21.560669%)" offset="0.21875"/><stop stop-opacity="1" stop-color="rgb(100%, 27.586365%, 21.646118%)" offset="0.226562"/><stop stop-opacity="1" stop-color="rgb(100%, 27.880859%, 21.733093%)" offset="0.234375"/><stop stop-opacity="1" stop-color="rgb(100%, 28.175354%, 21.818542%)" offset="0.242188"/><stop stop-opacity="1" stop-color="rgb(100%, 28.469849%, 21.903992%)" offset="0.25"/><stop stop-opacity="1" stop-color="rgb(100%, 28.764343%, 21.989441%)" offset="0.257812"/><stop stop-opacity="1" stop-color="rgb(100%, 29.058838%, 22.076416%)" offset="0.265625"/><stop stop-opacity="1" stop-color="rgb(100%, 29.353333%, 22.161865%)" offset="0.273438"/><stop stop-opacity="1" stop-color="rgb(100%, 29.647827%, 22.247314%)" offset="0.28125"/><stop stop-opacity="1" stop-color="rgb(100%, 29.942322%, 22.33429%)" offset="0.289062"/><stop stop-opacity="1" stop-color="rgb(100%, 30.235291%, 22.419739%)" offset="0.296875"/><stop stop-opacity="1" stop-color="rgb(100%, 30.529785%, 22.505188%)" offset="0.304688"/><stop stop-opacity="1" stop-color="rgb(100%, 30.82428%, 22.590637%)" offset="0.3125"/><stop stop-opacity="1" stop-color="rgb(100%, 31.118774%, 22.677612%)" offset="0.320312"/><stop stop-opacity="1" stop-color="rgb(100%, 31.413269%, 22.763062%)" offset="0.328125"/><stop stop-opacity="1" stop-color="rgb(100%, 31.707764%, 22.848511%)" offset="0.335938"/><stop stop-opacity="1" stop-color="rgb(100%, 32.002258%, 22.935486%)" offset="0.34375"/><stop stop-opacity="1" stop-color="rgb(100%, 32.296753%, 23.020935%)" offset="0.351562"/><stop stop-opacity="1" stop-color="rgb(100%, 32.591248%, 23.106384%)" offset="0.359375"/><stop stop-opacity="1" stop-color="rgb(100%, 32.884216%, 23.191833%)" offset="0.367188"/><stop stop-opacity="1" stop-color="rgb(100%, 33.178711%, 23.278809%)" offset="0.375"/><stop stop-opacity="1" stop-color="rgb(100%, 33.473206%, 23.364258%)" offset="0.382812"/><stop stop-opacity="1" stop-color="rgb(100%, 33.7677%, 23.449707%)" offset="0.390625"/><stop stop-opacity="1" stop-color="rgb(100%, 34.062195%, 23.536682%)" offset="0.398438"/><stop stop-opacity="1" stop-color="rgb(100%, 34.356689%, 23.622131%)" offset="0.40625"/><stop stop-opacity="1" stop-color="rgb(100%, 34.651184%, 23.707581%)" offset="0.414062"/><stop stop-opacity="1" stop-color="rgb(100%, 34.945679%, 23.79303%)" offset="0.421875"/><stop stop-opacity="1" stop-color="rgb(100%, 35.240173%, 23.880005%)" offset="0.429688"/><stop stop-opacity="1" stop-color="rgb(100%, 35.534668%, 23.965454%)" offset="0.4375"/><stop stop-opacity="1" stop-color="rgb(100%, 35.827637%, 24.050903%)" offset="0.445312"/><stop stop-opacity="1" stop-color="rgb(100%, 36.122131%, 24.136353%)" offset="0.453125"/><stop stop-opacity="1" stop-color="rgb(100%, 36.416626%, 24.223328%)" offset="0.460937"/><stop stop-opacity="1" stop-color="rgb(100%, 36.711121%, 24.308777%)" offset="0.46875"/><stop stop-opacity="1" stop-color="rgb(100%, 37.005615%, 24.394226%)" offset="0.476562"/><stop stop-opacity="1" stop-color="rgb(100%, 37.30011%, 24.481201%)" offset="0.484375"/><stop stop-opacity="1" stop-color="rgb(100%, 37.594604%, 24.56665%)" offset="0.492188"/><stop stop-opacity="1" stop-color="rgb(100%, 37.889099%, 24.6521%)" offset="0.5"/><stop stop-opacity="1" stop-color="rgb(100%, 38.183594%, 24.737549%)" offset="0.507812"/><stop stop-opacity="1" stop-color="rgb(100%, 38.476562%, 24.824524%)" offset="0.515625"/><stop stop-opacity="1" stop-color="rgb(100%, 38.771057%, 24.909973%)" offset="0.523438"/><stop stop-opacity="1" stop-color="rgb(100%, 39.065552%, 24.995422%)" offset="0.53125"/><stop stop-opacity="1" stop-color="rgb(100%, 39.360046%, 25.082397%)" offset="0.539062"/><stop stop-opacity="1" stop-color="rgb(100%, 39.654541%, 25.167847%)" offset="0.546875"/><stop stop-opacity="1" stop-color="rgb(100%, 39.949036%, 25.253296%)" offset="0.554688"/><stop stop-opacity="1" stop-color="rgb(100%, 40.24353%, 25.338745%)" offset="0.5625"/><stop stop-opacity="1" stop-color="rgb(100%, 40.538025%, 25.42572%)" offset="0.570312"/><stop stop-opacity="1" stop-color="rgb(100%, 40.83252%, 25.511169%)" offset="0.578125"/><stop stop-opacity="1" stop-color="rgb(100%, 41.125488%, 25.596619%)" offset="0.585938"/><stop stop-opacity="1" stop-color="rgb(100%, 41.419983%, 25.683594%)" offset="0.59375"/><stop stop-opacity="1" stop-color="rgb(100%, 41.714478%, 25.769043%)" offset="0.601562"/><stop stop-opacity="1" stop-color="rgb(100%, 42.008972%, 25.854492%)" offset="0.609375"/><stop stop-opacity="1" stop-color="rgb(100%, 42.303467%, 25.939941%)" offset="0.617188"/><stop stop-opacity="1" stop-color="rgb(100%, 42.597961%, 26.026917%)" offset="0.625"/><stop stop-opacity="1" stop-color="rgb(100%, 42.892456%, 26.112366%)" offset="0.632812"/><stop stop-opacity="1" stop-color="rgb(100%, 43.186951%, 26.197815%)" offset="0.640625"/><stop stop-opacity="1" stop-color="rgb(100%, 43.481445%, 26.28479%)" offset="0.648438"/><stop stop-opacity="1" stop-color="rgb(100%, 43.77594%, 26.370239%)" offset="0.65625"/><stop stop-opacity="1" stop-color="rgb(100%, 44.068909%, 26.455688%)" offset="0.664062"/><stop stop-opacity="1" stop-color="rgb(100%, 44.363403%, 26.541138%)" offset="0.671875"/><stop stop-opacity="1" stop-color="rgb(100%, 44.657898%, 26.628113%)" offset="0.679688"/><stop stop-opacity="1" stop-color="rgb(100%, 44.952393%, 26.713562%)" offset="0.6875"/><stop stop-opacity="1" stop-color="rgb(100%, 45.246887%, 26.799011%)" offset="0.695312"/><stop stop-opacity="1" stop-color="rgb(100%, 45.541382%, 26.88446%)" offset="0.703125"/><stop stop-opacity="1" stop-color="rgb(100%, 45.835876%, 26.971436%)" offset="0.710938"/><stop stop-opacity="1" stop-color="rgb(100%, 46.130371%, 27.056885%)" offset="0.71875"/><stop stop-opacity="1" stop-color="rgb(100%, 46.424866%, 27.142334%)" offset="0.726562"/><stop stop-opacity="1" stop-color="rgb(100%, 46.717834%, 27.229309%)" offset="0.734375"/><stop stop-opacity="1" stop-color="rgb(100%, 47.012329%, 27.314758%)" offset="0.742187"/><stop stop-opacity="1" stop-color="rgb(100%, 47.306824%, 27.400208%)" offset="0.75"/><stop stop-opacity="1" stop-color="rgb(100%, 47.601318%, 27.485657%)" offset="0.757812"/><stop stop-opacity="1" stop-color="rgb(100%, 47.895813%, 27.572632%)" offset="0.765625"/><stop stop-opacity="1" stop-color="rgb(100%, 48.190308%, 27.658081%)" offset="0.773438"/><stop stop-opacity="1" stop-color="rgb(100%, 48.484802%, 27.74353%)" offset="0.78125"/><stop stop-opacity="1" stop-color="rgb(100%, 48.779297%, 27.830505%)" offset="0.789062"/><stop stop-opacity="1" stop-color="rgb(100%, 49.073792%, 27.915955%)" offset="0.796875"/><stop stop-opacity="1" stop-color="rgb(100%, 49.368286%, 28.001404%)" offset="0.804688"/><stop stop-opacity="1" stop-color="rgb(100%, 49.661255%, 28.086853%)" offset="0.8125"/><stop stop-opacity="1" stop-color="rgb(100%, 49.95575%, 28.173828%)" offset="0.820312"/><stop stop-opacity="1" stop-color="rgb(100%, 50.250244%, 28.259277%)" offset="0.828125"/><stop stop-opacity="1" stop-color="rgb(100%, 50.544739%, 28.344727%)" offset="0.835938"/><stop stop-opacity="1" stop-color="rgb(100%, 50.839233%, 28.431702%)" offset="0.84375"/><stop stop-opacity="1" stop-color="rgb(100%, 51.133728%, 28.517151%)" offset="0.851562"/><stop stop-opacity="1" stop-color="rgb(100%, 51.428223%, 28.6026%)" offset="0.859375"/><stop stop-opacity="1" stop-color="rgb(100%, 51.722717%, 28.688049%)" offset="0.867188"/><stop stop-opacity="1" stop-color="rgb(100%, 52.017212%, 28.775024%)" offset="0.875"/><stop stop-opacity="1" stop-color="rgb(100%, 52.310181%, 28.860474%)" offset="0.882812"/><stop stop-opacity="1" stop-color="rgb(100%, 52.604675%, 28.945923%)" offset="0.890625"/><stop stop-opacity="1" stop-color="rgb(100%, 52.89917%, 29.032898%)" offset="0.898438"/><stop stop-opacity="1" stop-color="rgb(100%, 53.193665%, 29.118347%)" offset="0.90625"/><stop stop-opacity="1" stop-color="rgb(100%, 53.488159%, 29.203796%)" offset="0.914062"/><stop stop-opacity="1" stop-color="rgb(100%, 53.782654%, 29.289246%)" offset="0.921875"/><stop stop-opacity="1" stop-color="rgb(100%, 54.077148%, 29.376221%)" offset="0.929688"/><stop stop-opacity="1" stop-color="rgb(100%, 54.371643%, 29.46167%)" offset="0.9375"/><stop stop-opacity="1" stop-color="rgb(100%, 54.666138%, 29.547119%)" offset="0.945313"/><stop stop-opacity="1" stop-color="rgb(100%, 54.959106%, 29.634094%)" offset="0.953125"/><stop stop-opacity="1" stop-color="rgb(100%, 55.253601%, 29.719543%)" offset="0.960938"/><stop stop-opacity="1" stop-color="rgb(100%, 55.548096%, 29.804993%)" offset="0.96875"/><stop stop-opacity="1" stop-color="rgb(100%, 55.84259%, 29.890442%)" offset="0.976562"/><stop stop-opacity="1" stop-color="rgb(100%, 56.137085%, 29.977417%)" offset="0.984375"/><stop stop-opacity="1" stop-color="rgb(100%, 56.43158%, 30.062866%)" offset="0.992188"/><stop stop-opacity="1" stop-color="rgb(100%, 56.726074%, 30.148315%)" offset="1"/></linearGradient><clipPath id="d042a04db3"><path d="M 16.46875 33.320312 L 122 33.320312 L 122 85.714844 L 16.46875 85.714844 Z M 16.46875 33.320312 " clip-rule="nonzero"/></clipPath><clipPath id="99e68eab23"><path d="M 16.46875 59.660156 C 16.46875 74.207031 28.261719 86 42.808594 86 L 95.492188 86 C 110.039062 86 121.832031 74.207031 121.832031 59.660156 C 121.832031 45.113281 110.039062 33.320312 95.492188 33.320312 L 42.808594 33.320312 C 28.261719 33.320312 16.46875 45.113281 16.46875 59.660156 Z M 16.46875 59.660156 " clip-rule="nonzero"/></clipPath><clipPath id="fea1facbbe"><path d="M 73 38 L 116 38 L 116 81 L 73 81 Z M 73 38 " clip-rule="nonzero"/></clipPath><clipPath id="f058717da7"><path d="M 16.46875 59.660156 C 16.46875 74.207031 28.261719 86 42.808594 86 L 95.492188 86 C 110.039062 86 121.832031 74.207031 121.832031 59.660156 C 121.832031 45.113281 110.039062 33.320312 95.492188 33.320312 L 42.808594 33.320312 C 28.261719 33.320312 16.46875 45.113281 16.46875 59.660156 Z M 16.46875 59.660156 " clip-rule="nonzero"/></clipPath></defs><g clip-path="url(#a2cb1a2164)"><g clip-path="url(#ba9a8f2e80)"><path stroke-linecap="butt" transform="matrix(0.748488, 0, 0, 0.748488, 0.133986, 6.114084)" fill="none" stroke-linejoin="miter" d="M 71.533287 -0.00107261 L 407.778937 -0.00107261 C 426.749478 -0.00107261 444.942408 7.534955 458.360086 20.952633 C 471.772545 34.365092 479.308573 52.558023 479.308573 71.533782 C 479.308573 90.504322 471.772545 108.697253 458.360086 122.109712 C 444.942408 135.52739 426.749478 143.063417 407.778937 143.063417 L 71.533287 143.063417 C 52.557528 143.063417 34.364597 135.52739 20.952138 122.109712 C 7.53446 108.697253 -0.0015672 90.504322 -0.0015672 71.533782 C -0.0015672 52.558023 7.53446 34.365092 20.952138 20.952633 C 34.364597 7.534955 52.557528 -0.00107261 71.533287 -0.00107261 Z M 71.533287 -0.00107261 " stroke="url(#33af3907ae)" stroke-width="18" stroke-miterlimit="4"/></g></g><g clip-path="url(#d042a04db3)"><g clip-path="url(#99e68eab23)"><path fill="#f05831" d="M 97.054688 33.320312 L 41.246094 33.320312 C 27.636719 33.320312 16.472656 44.480469 16.472656 58.089844 L 16.472656 61.160156 C 16.472656 74.832031 27.636719 85.992188 41.246094 85.992188 L 96.992188 85.992188 C 110.597656 85.992188 121.761719 74.832031 121.761719 61.222656 L 121.761719 58.152344 C 121.824219 44.480469 110.664062 33.320312 97.054688 33.320312 Z M 97.054688 33.320312 " fill-opacity="1" fill-rule="nonzero"/></g></g><g clip-path="url(#fea1facbbe)"><g clip-path="url(#f058717da7)"><path fill="#000000" d="M 115.679688 59.65625 C 115.679688 60.34375 115.644531 61.027344 115.578125 61.710938 C 115.511719 62.390625 115.410156 63.070312 115.277344 63.742188 C 115.140625 64.414062 114.976562 65.078125 114.777344 65.734375 C 114.578125 66.390625 114.347656 67.039062 114.085938 67.671875 C 113.820312 68.304688 113.527344 68.925781 113.207031 69.53125 C 112.882812 70.132812 112.53125 70.722656 112.148438 71.292969 C 111.769531 71.863281 111.359375 72.414062 110.925781 72.941406 C 110.488281 73.472656 110.03125 73.980469 109.542969 74.464844 C 109.058594 74.953125 108.550781 75.410156 108.019531 75.847656 C 107.492188 76.28125 106.941406 76.691406 106.371094 77.070312 C 105.800781 77.453125 105.210938 77.804688 104.609375 78.128906 C 104.003906 78.449219 103.382812 78.742188 102.75 79.007812 C 102.117188 79.269531 101.46875 79.5 100.8125 79.699219 C 100.15625 79.898438 99.492188 80.066406 98.820312 80.199219 C 98.148438 80.332031 97.46875 80.433594 96.789062 80.5 C 96.105469 80.566406 95.421875 80.601562 94.734375 80.601562 C 94.046875 80.601562 93.363281 80.566406 92.679688 80.5 C 92 80.433594 91.320312 80.332031 90.648438 80.199219 C 89.976562 80.066406 89.3125 79.898438 88.65625 79.699219 C 87.996094 79.5 87.351562 79.269531 86.71875 79.007812 C 86.085938 78.742188 85.464844 78.449219 84.859375 78.128906 C 84.257812 77.804688 83.667969 77.453125 83.097656 77.070312 C 82.527344 76.691406 81.976562 76.28125 81.445312 75.847656 C 80.917969 75.410156 80.410156 74.953125 79.925781 74.464844 C 79.4375 73.980469 78.980469 73.472656 78.542969 72.941406 C 78.109375 72.414062 77.699219 71.863281 77.320312 71.292969 C 76.9375 70.722656 76.585938 70.132812 76.261719 69.53125 C 75.941406 68.925781 75.648438 68.304688 75.382812 67.671875 C 75.121094 67.039062 74.890625 66.390625 74.691406 65.734375 C 74.492188 65.078125 74.324219 64.414062 74.191406 63.742188 C 74.058594 63.070312 73.957031 62.390625 73.890625 61.710938 C 73.824219 61.027344 73.789062 60.34375 73.789062 59.65625 C 73.789062 58.96875 73.824219 58.285156 73.890625 57.601562 C 73.957031 56.921875 74.058594 56.242188 74.191406 55.570312 C 74.324219 54.898438 74.492188 54.234375 74.691406 53.578125 C 74.890625 52.921875 75.121094 52.273438 75.382812 51.640625 C 75.648438 51.007812 75.941406 50.386719 76.261719 49.78125 C 76.585938 49.179688 76.9375 48.589844 77.320312 48.019531 C 77.699219 47.449219 78.109375 46.898438 78.542969 46.371094 C 78.980469 45.839844 79.4375 45.332031 79.925781 44.847656 C 80.410156 44.359375 80.917969 43.902344 81.445312 43.464844 C 81.976562 43.03125 82.527344 42.621094 83.097656 42.242188 C 83.667969 41.859375 84.257812 41.507812 84.859375 41.183594 C 85.464844 40.863281 86.085938 40.570312 86.71875 40.304688 C 87.351562 40.042969 87.996094 39.8125 88.65625 39.613281 C 89.3125 39.414062 89.976562 39.246094 90.648438 39.113281 C 91.320312 38.980469 92 38.878906 92.679688 38.8125 C 93.363281 38.746094 94.046875 38.710938 94.734375 38.710938 C 95.421875 38.710938 96.105469 38.746094 96.789062 38.8125 C 97.46875 38.878906 98.148438 38.980469 98.820312 39.113281 C 99.492188 39.246094 100.15625 39.414062 100.8125 39.613281 C 101.46875 39.8125 102.117188 40.042969 102.75 40.304688 C 103.382812 40.570312 104.003906 40.863281 104.609375 41.183594 C 105.210938 41.507812 105.800781 41.859375 106.371094 42.242188 C 106.941406 42.621094 107.492188 43.03125 108.019531 43.464844 C 108.550781 43.902344 109.058594 44.359375 109.542969 44.847656 C 110.03125 45.332031 110.488281 45.839844 110.925781 46.371094 C 111.359375 46.898438 111.769531 47.449219 112.148438 48.019531 C 112.53125 48.589844 112.882812 49.179688 113.207031 49.78125 C 113.527344 50.386719 113.820312 51.007812 114.085938 51.640625 C 114.347656 52.273438 114.578125 52.921875 114.777344 53.578125 C 114.976562 54.234375 115.140625 54.898438 115.277344 55.570312 C 115.410156 56.242188 115.511719 56.921875 115.578125 57.601562 C 115.644531 58.285156 115.679688 58.96875 115.679688 59.65625 Z M 115.679688 59.65625 " fill-opacity="1" fill-rule="nonzero"/></g></g><g fill="#ffffff" fill-opacity="1"><g transform="translate(196.819736, 79.305655)"><g><path d="M 18.765625 -22.828125 L 13.71875 -22.828125 L 13.71875 0 L 4.328125 0 L 4.328125 -22.828125 L 0.9375 -22.828125 L 0.9375 -30.625 L 4.328125 -30.625 L 4.328125 -31.5 C 4.328125 -35.269531 5.40625 -38.128906 7.5625 -40.078125 C 9.726562 -42.035156 12.894531 -43.015625 17.0625 -43.015625 C 17.757812 -43.015625 18.273438 -43 18.609375 -42.96875 L 18.609375 -35.015625 C 16.804688 -35.117188 15.539062 -34.859375 14.8125 -34.234375 C 14.082031 -33.617188 13.71875 -32.503906 13.71875 -30.890625 L 13.71875 -30.625 L 18.765625 -30.625 Z M 18.765625 -22.828125 "/></g></g></g><g fill="#ffffff" fill-opacity="1"><g transform="translate(216.565825, 79.305655)"><g><path d="M 12.78125 -40.609375 L 12.78125 0 L 3.40625 0 L 3.40625 -40.609375 Z M 12.78125 -40.609375 "/></g></g></g><g fill="#ffffff" fill-opacity="1"><g transform="translate(232.746649, 79.305655)"><g><path d="M 32.265625 -15.796875 C 32.265625 -14.921875 32.210938 -14.007812 32.109375 -13.0625 L 10.859375 -13.0625 C 11.003906 -11.15625 11.617188 -9.695312 12.703125 -8.6875 C 13.785156 -7.6875 15.113281 -7.1875 16.6875 -7.1875 C 19.019531 -7.1875 20.644531 -8.175781 21.5625 -10.15625 L 31.546875 -10.15625 C 31.035156 -8.144531 30.113281 -6.332031 28.78125 -4.71875 C 27.445312 -3.113281 25.773438 -1.851562 23.765625 -0.9375 C 21.753906 -0.0195312 19.503906 0.4375 17.015625 0.4375 C 14.015625 0.4375 11.34375 -0.203125 9 -1.484375 C 6.65625 -2.765625 4.820312 -4.59375 3.5 -6.96875 C 2.1875 -9.34375 1.53125 -12.125 1.53125 -15.3125 C 1.53125 -18.488281 2.179688 -21.265625 3.484375 -23.640625 C 4.785156 -26.023438 6.601562 -27.859375 8.9375 -29.140625 C 11.28125 -30.421875 13.972656 -31.0625 17.015625 -31.0625 C 19.972656 -31.0625 22.601562 -30.4375 24.90625 -29.1875 C 27.21875 -27.945312 29.019531 -26.171875 30.3125 -23.859375 C 31.613281 -21.554688 32.265625 -18.867188 32.265625 -15.796875 Z M 22.65625 -18.265625 C 22.65625 -19.878906 22.109375 -21.160156 21.015625 -22.109375 C 19.921875 -23.066406 18.550781 -23.546875 16.90625 -23.546875 C 15.332031 -23.546875 14.003906 -23.085938 12.921875 -22.171875 C 11.835938 -21.253906 11.171875 -19.953125 10.921875 -18.265625 Z M 22.65625 -18.265625 "/></g></g></g><g fill="#ffffff" fill-opacity="1"><g transform="translate(266.534399, 79.305655)"><g><path d="M 21.515625 0 L 15.640625 -8.5 L 10.703125 0 L 0.546875 0 L 10.640625 -15.640625 L 0.28125 -30.625 L 10.8125 -30.625 L 16.6875 -22.171875 L 21.625 -30.625 L 31.765625 -30.625 L 21.515625 -15.203125 L 32.046875 0 Z M 21.515625 0 "/></g></g></g><g fill="#ffffff" fill-opacity="1"><g transform="translate(298.786348, 79.305655)"><g><path d="M 34.6875 -30.625 L 15.46875 14.546875 L 5.375 14.546875 L 12.40625 -1.046875 L -0.0625 -30.625 L 10.421875 -30.625 L 17.5 -11.46875 L 24.53125 -30.625 Z M 34.6875 -30.625 "/></g></g></g><g fill="#ffffff" fill-opacity="1"><g transform="translate(132.293575, 80.001727)"><g><path d="M 8.578125 0.875 C 7.023438 0.875 5.660156 0.273438 4.484375 -0.921875 C 3.304688 -2.117188 2.71875 -4.207031 2.71875 -7.1875 C 2.71875 -9.195312 3.101562 -11.222656 3.875 -13.265625 C 4.65625 -15.316406 5.691406 -17.257812 6.984375 -19.09375 C 8.273438 -20.925781 9.738281 -22.578125 11.375 -24.046875 C 13.019531 -25.515625 14.726562 -26.660156 16.5 -27.484375 C 18.28125 -28.316406 20.019531 -28.734375 21.71875 -28.734375 C 22.5 -28.734375 23.234375 -28.617188 23.921875 -28.390625 L 24.796875 -32.734375 C 25.140625 -34.472656 24.503906 -35.648438 22.890625 -36.265625 L 21.609375 -36.796875 L 21.71875 -37.375 L 32.96875 -40.609375 L 33.375 -40.203125 L 26.25 -6.484375 C 26.132812 -5.867188 26.046875 -5.359375 25.984375 -4.953125 C 25.921875 -4.546875 25.890625 -4.148438 25.890625 -3.765625 C 25.890625 -2.953125 26.222656 -2.546875 26.890625 -2.546875 C 27.347656 -2.546875 27.972656 -2.785156 28.765625 -3.265625 C 29.554688 -3.753906 30.359375 -4.484375 31.171875 -5.453125 L 31.8125 -4.859375 C 30.882812 -3.316406 29.628906 -1.972656 28.046875 -0.828125 C 26.460938 0.304688 24.78125 0.875 23 0.875 C 21.726562 0.875 20.722656 0.457031 19.984375 -0.375 C 19.253906 -1.207031 18.890625 -2.28125 18.890625 -3.59375 C 18.890625 -4.25 18.945312 -5.019531 19.0625 -5.90625 C 17.476562 -3.894531 15.75 -2.257812 13.875 -1 C 12 0.25 10.234375 0.875 8.578125 0.875 Z M 9.796875 -9.03125 C 9.796875 -7.101562 10.101562 -5.710938 10.71875 -4.859375 C 11.332031 -4.015625 12.144531 -3.59375 13.15625 -3.59375 C 14.925781 -3.59375 16.972656 -4.941406 19.296875 -7.640625 C 19.328125 -7.835938 19.363281 -8.050781 19.40625 -8.28125 L 22.9375 -25.375 C 21.976562 -26.257812 20.84375 -26.703125 19.53125 -26.703125 C 18.5625 -26.703125 17.660156 -26.476562 16.828125 -26.03125 C 15.992188 -25.59375 15.210938 -24.96875 14.484375 -24.15625 C 13.597656 -23.15625 12.796875 -21.8125 12.078125 -20.125 C 11.367188 -18.445312 10.8125 -16.632812 10.40625 -14.6875 C 10 -12.738281 9.796875 -10.851562 9.796875 -9.03125 Z M 9.796875 -9.03125 "/></g></g></g><g fill="#ffffff" fill-opacity="1"><g transform="translate(164.322945, 80.001727)"><g><path d="M 12.75 0.875 C 9.851562 0.875 7.492188 -0.0703125 5.671875 -1.96875 C 3.859375 -3.863281 2.953125 -6.546875 2.953125 -10.015625 C 2.953125 -12.492188 3.375 -14.851562 4.21875 -17.09375 C 5.070312 -19.332031 6.257812 -21.328125 7.78125 -23.078125 C 9.3125 -24.835938 11.082031 -26.21875 13.09375 -27.21875 C 15.101562 -28.226562 17.285156 -28.734375 19.640625 -28.734375 C 22.078125 -28.734375 23.941406 -28.179688 25.234375 -27.078125 C 26.523438 -25.984375 27.171875 -24.53125 27.171875 -22.71875 C 27.171875 -21.207031 26.460938 -19.71875 25.046875 -18.25 C 23.640625 -16.78125 21.660156 -15.457031 19.109375 -14.28125 C 16.566406 -13.101562 13.578125 -12.207031 10.140625 -11.59375 C 10.179688 -8.925781 10.757812 -6.972656 11.875 -5.734375 C 13 -4.492188 14.546875 -3.875 16.515625 -3.875 C 18.171875 -3.875 19.691406 -4.328125 21.078125 -5.234375 C 22.472656 -6.148438 23.65625 -7.222656 24.625 -8.453125 L 25.203125 -8.046875 C 24.429688 -6.546875 23.4375 -5.117188 22.21875 -3.765625 C 21 -2.410156 19.597656 -1.296875 18.015625 -0.421875 C 16.429688 0.441406 14.675781 0.875 12.75 0.875 Z M 19.234375 -27.171875 C 18.347656 -27.171875 17.390625 -26.785156 16.359375 -26.015625 C 15.335938 -25.242188 14.375 -24.191406 13.46875 -22.859375 C 12.5625 -21.523438 11.804688 -20 11.203125 -18.28125 C 10.609375 -16.5625 10.253906 -14.734375 10.140625 -12.796875 C 14.390625 -13.960938 17.410156 -15.488281 19.203125 -17.375 C 21.003906 -19.269531 21.90625 -21.414062 21.90625 -23.8125 C 21.90625 -24.96875 21.648438 -25.816406 21.140625 -26.359375 C 20.640625 -26.898438 20.003906 -27.171875 19.234375 -27.171875 Z M 19.234375 -27.171875 "/></g></g></g></svg>