<svg version="1.2" baseProfile="tiny-ps" xmlns="http://www.w3.org/2000/svg" viewBox="0 0 1690 512" width="1690" height="512">
	<title>fiverr-svg</title>
	<style>
		tspan { white-space:pre }
		.shp0 { fill: #ffffff } 
		.shp1 { fill: #1dbf73 } 
	</style>
	<g id="Layer">
		<path id="Layer" fill-rule="evenodd" class="shp0" d="M1551.46 153.6L1513.51 153.6C1475.55 153.6 1450.88 164.98 1431.91 206.7L1431.91 153.6L1293.37 153.6C1255.41 153.6 1230.74 164.98 1211.77 206.7L1211.77 153.6L1097.9 153.6L1097.9 502.52L1211.77 502.52L1211.77 326.16C1211.77 276.86 1232.64 248.41 1270.6 248.41L1318.04 248.41L1318.04 502.52L1431.91 502.52L1431.91 326.16C1431.91 276.86 1452.78 248.41 1490.74 248.41L1549.57 248.41L1551.46 153.6ZM1071.33 354.61C1073.23 347.02 1073.23 337.54 1073.23 320.47C1073.23 246.52 1029.58 147.91 898.64 147.91C775.28 147.91 725.94 244.62 725.94 326.16C725.94 409.6 782.87 506.31 906.23 506.31C980.24 506.31 1040.97 470.28 1065.64 409.6L965.06 381.16C957.47 402.01 936.59 415.29 906.23 415.29C866.38 415.29 841.7 394.43 836.01 354.61L1071.33 354.61ZM836.01 288.24C843.6 246.52 864.48 231.35 900.53 231.35C938.49 231.35 961.26 257.9 963.16 288.24L836.01 288.24ZM528.58 502.52L627.26 502.52L752.51 155.5L638.64 155.5L577.92 358.4L517.19 153.6L403.32 153.6L528.58 502.52ZM65.52 502.52L177.49 502.52L177.49 248.41L285.66 248.41L285.66 502.52L397.63 502.52L397.63 153.6L177.49 153.6L177.49 132.74C177.49 109.99 194.57 94.81 219.24 94.81L285.66 94.81L285.66 0L202.16 0C120.56 0 65.52 51.2 65.52 125.16L65.52 153.6L1 153.6L1 248.41L65.52 248.41L65.52 502.52Z" />
	</g>
	<g id="Layer">
		<path id="Layer" class="shp1" d="M1619.78 512C1657.74 512 1690 479.76 1690 441.84C1690 403.91 1657.74 371.67 1619.78 371.67C1581.83 371.67 1549.57 403.91 1549.57 441.84C1549.57 479.76 1581.83 512 1619.78 512Z" />
	</g>
</svg>