<svg version="1.2" xmlns="http://www.w3.org/2000/svg" viewBox="0 0 1502 412" width="1502" height="412">
	<title>upwiork-svg</title>
	<style>
		.s0 { fill: #ffffff } 
	</style>
	<path id="Layer" fill-rule="evenodd" class="s0" d="m415 83.7c16-0.1 31.9 3 46.7 9.1 14.8 6.1 28.2 15.1 39.5 26.5 11.2 11.4 20.1 25 26 39.9 5.9 14.9 8.7 30.8 8.4 46.8 0.5 16.1-2.3 32.1-8.1 47.1-5.8 14.9-14.6 28.6-25.9 40.1-11.2 11.5-24.7 20.6-39.6 26.7-14.8 6.2-30.8 9.3-46.9 9.1h-5q-8.1-0.3-16-1.6-8-1.4-15.7-3.8-7.7-2.4-15.1-5.7-7.3-3.4-14.2-7.7-2.6-1.7-5.2-3.4-2.5-1.8-5.1-3.6-2.5-1.8-4.9-3.8-2.4-1.9-4.8-3.9l-19 116.5h-54.8l28.9-164.5q-9.2-13.5-17.2-27.8-8.1-14.2-14.8-29.1-6.8-14.9-12.3-30.3-5.5-15.4-9.6-31.3v78.6c0 71.4-45.5 121.3-110.4 121.3-7.7 0.2-15.3-0.5-22.8-1.9-7.4-1.4-14.8-3.6-21.8-6.6-7-3-13.7-6.7-19.9-11.1-6.2-4.4-12-9.4-17.1-15-5.3-6-9.9-12.5-13.9-19.4-4-6.9-7.4-14.1-10.1-21.6-2.6-7.6-4.5-15.3-5.7-23.2-1.2-7.9-1.7-15.8-1.4-23.8v-116.2h53.9v116.2c0 42.4 21.4 73.6 58.9 73.6 37.6 0 56.7-31.4 56.7-73.6v-116.2h93.8q2.4 10.7 5.3 21.2 3 10.6 6.5 20.9 3.6 10.4 7.8 20.5 4.1 10.2 8.8 20c2.9-12.9 8-25.3 15.2-36.6 7.1-11.2 16.2-21.1 26.7-29.2 10.6-8.1 22.5-14.3 35.2-18.3 12.7-4.1 26-5.9 39.3-5.3m0 196.3c37.4 0 66.8-29.5 66.8-73.6 0-44.1-28.8-73.6-66.8-73.6-38 0-66.7 24.5-76.6 103 4.1 6.5 8.9 12.5 14.4 17.9 5.5 5.3 11.6 10 18.2 13.9 6.6 3.9 13.7 7 21.1 9.3 7.3 2.2 14.9 3.5 22.6 4z"/>
	<path id="Layer" fill-rule="evenodd" class="s0" d="m1270.1 88.3v52.4c-74.5-5.2-79.5 34.7-79.5 90.2v90h-53.8v-230h53v24.8c18.4-22.9 45.5-30.1 80.3-27.4zm-452.7 2.5h57.3l-63 230.3h-64.5l-44.4-163.5-44.7 163.5h-64.5l-59.7-230.3h54.4l38.9 161 41.5-161h68.3l41.5 161zm175.4-7.1c16-0.1 31.9 2.9 46.7 9.1 14.8 6.1 28.3 15.1 39.5 26.5 11.2 11.4 20.1 25 25.9 39.9 5.9 14.9 8.8 30.8 8.4 46.8 1.1 32.6-11.1 64.3-33.8 87.8-22.7 23.5-53.9 36.7-86.6 36.7-32.7 0-64-13.2-86.7-36.7-22.7-23.5-34.8-55.2-33.7-87.8-0.5-16.1 2.3-32.2 8.2-47.1 5.8-15 14.7-28.7 26-40.2 11.3-11.5 24.8-20.5 39.7-26.7 14.9-6.1 30.9-9.1 47-8.9zm0.6 195.9c37.4 0 66.8-29.5 66.8-73.6 0-44.2-30.1-72.6-67.4-72.6-37.2 0-66.7 30.2-66.7 73.6 0 43.4 28.6 73.6 66.7 73.6zm353.4 41.5h-53.6v-321.1h53.8v159.4c38.8 0 78-18.9 78-68.4h53.5c0 11.1-1.6 22.2-4.8 32.8-3.2 10.7-8 20.8-14.2 30.1-6.2 9.3-13.7 17.6-22.3 24.6-8.6 7.1-18.2 12.8-28.5 17.1l86.1 125.5h-60.5l-75-113.2h-12.3z"/>
</svg>